<?xml version="1.0" encoding="UTF-8" standalone="no"?>
<!-- Created with Inkscape (http://www.inkscape.org/) -->

<svg
   xmlns:dc="http://purl.org/dc/elements/1.1/"
   xmlns:cc="http://creativecommons.org/ns#"
   xmlns:rdf="http://www.w3.org/1999/02/22-rdf-syntax-ns#"
   xmlns:svg="http://www.w3.org/2000/svg"
   xmlns="http://www.w3.org/2000/svg"
   xmlns:sodipodi="http://sodipodi.sourceforge.net/DTD/sodipodi-0.dtd"
   xmlns:inkscape="http://www.inkscape.org/namespaces/inkscape"
   width="744.09448819"
   height="1052.3622047"
   id="svg3231"
   version="1.1"
   inkscape:version="0.48.4 r9939"
   sodipodi:docname="0-1.svg">
  <defs
     id="defs3233" />
  <sodipodi:namedview
     id="base"
     pagecolor="#ffffff"
     bordercolor="#666666"
     borderopacity="1.0"
     inkscape:pageopacity="0.0"
     inkscape:pageshadow="2"
     inkscape:zoom="0.35"
     inkscape:cx="375"
     inkscape:cy="520"
     inkscape:document-units="px"
     inkscape:current-layer="layer1"
     showgrid="false"
     inkscape:window-width="457"
     inkscape:window-height="414"
     inkscape:window-x="508"
     inkscape:window-y="356"
     inkscape:window-maximized="0" />
  <metadata
     id="metadata3236">
    <rdf:RDF>
      <cc:Work
         rdf:about="">
        <dc:format>image/svg+xml</dc:format>
        <dc:type
           rdf:resource="http://purl.org/dc/dcmitype/StillImage" />
        <dc:title></dc:title>
      </cc:Work>
    </rdf:RDF>
  </metadata>
  <g
     inkscape:label="Layer 1"
     inkscape:groupmode="layer"
     id="layer1">
    <g
       id="g13532"
       transform="translate(279.375,346.30685)">
      <path
         d="m 110.53125,144.96875 c -9.76526,0 -18.14719,5.06417 -22.25,12.375 -1.638643,-0.91483 -3.44606,-1.46875 -5.375,-1.46875 -5.833179,0 -10.68722,4.69253 -12.1875,11.0625 -2.560777,-1.01217 -5.53828,-1.625 -8.71875,-1.625 -9.541429,0 -17.28125,5.22046 -17.28125,11.65625 -10e-7,5.80941 6.34768,10.58527 14.59375,11.46875 -0.369578,0.62706 -0.65625,1.24801 -0.65625,1.90625 -2e-6,6.16193 16.88189,11.1875 37.6875,11.1875 20.80561,0 37.68751,-5.02557 37.6875,-11.1875 0,-0.41459 -0.25732,-0.78459 -0.40625,-1.1875 0.91129,0.22662 1.8136,0.46875 2.8125,0.46875 5.56583,1e-5 10.09375,-3.78182 10.09375,-8.4375 0,-4.65568 -4.52793,-8.4375 -10.09375,-8.4375 -0.68208,0 -1.26206,0.2356 -1.90625,0.34375 0.56329,-1.86157 0.9375,-3.76107 0.9375,-5.78125 0,-12.32386 -11.15545,-22.34375 -24.9375,-22.34375 z"
         id="path9481"
         inkscape:original="M 110.53125 144.96875 C 100.76599 144.96875 92.384060 150.03292 88.281250 157.34375 C 86.642607 156.42892 84.835190 155.87500 82.906250 155.87500 C 77.073071 155.87500 72.219030 160.56753 70.718750 166.93750 C 68.157973 165.92533 65.180470 165.31250 62.000000 165.31250 C 52.458571 165.31250 44.718750 170.53296 44.718750 176.96875 C 44.718749 182.77816 51.066430 187.55402 59.312500 188.43750 C 58.942922 189.06456 58.656250 189.68551 58.656250 190.34375 C 58.656248 196.50568 75.538140 201.53125 96.343750 201.53125 C 117.14936 201.53125 134.03126 196.50568 134.03125 190.34375 C 134.03125 189.92916 133.77393 189.55916 133.62500 189.15625 C 134.53629 189.38287 135.43860 189.62500 136.43750 189.62500 C 142.00333 189.62501 146.53125 185.84318 146.53125 181.18750 C 146.53125 176.53182 142.00332 172.75000 136.43750 172.75000 C 135.75542 172.75000 135.17544 172.98560 134.53125 173.09375 C 135.09454 171.23218 135.46875 169.33268 135.46875 167.31250 C 135.46875 154.98864 124.31330 144.96875 110.53125 144.96875 z "
         inkscape:radius="0"
         sodipodi:type="inkscape:offset"
         style="color:#000000;fill:#ffffff;fill-opacity:1;fill-rule:nonzero;stroke:#6798e9;stroke-width:6.15399885;stroke-linecap:round;stroke-linejoin:round;stroke-miterlimit:0.5;stroke-opacity:1;stroke-dasharray:none;stroke-dashoffset:0;marker:none;visibility:visible;display:inline;overflow:visible" />
      <path
         inkscape:connector-curvature="0"
         d="m 83.861856,219.53167 c -8.250478,7.26999 1.436833,13.46942 5.12033,3.48618 l 2.832523,-9.26017 -7.952853,5.77399 z"
         id="path6522"
         sodipodi:nodetypes="cccc"
         style="color:#000000;fill:#6798e9;fill-opacity:1;fill-rule:nonzero;stroke:#6798e9;stroke-width:4;stroke-linecap:butt;stroke-linejoin:miter;stroke-miterlimit:3.20000005;stroke-opacity:1;stroke-dasharray:none;stroke-dashoffset:0;marker:none;visibility:visible;display:inline;overflow:visible" />
      <path
         d="m 110.53125,144.96875 c -9.76526,0 -18.14719,5.06417 -22.25,12.375 -1.638643,-0.91483 -3.44606,-1.46875 -5.375,-1.46875 -5.833179,0 -10.68722,4.69253 -12.1875,11.0625 -2.560777,-1.01217 -5.53828,-1.625 -8.71875,-1.625 -9.541429,0 -17.28125,5.22046 -17.28125,11.65625 -10e-7,5.80941 6.34768,10.58527 14.59375,11.46875 -0.369578,0.62706 -0.65625,1.24801 -0.65625,1.90625 -2e-6,6.16193 16.88189,11.1875 37.6875,11.1875 20.80561,0 37.68751,-5.02557 37.6875,-11.1875 0,-0.41459 -0.25732,-0.78459 -0.40625,-1.1875 0.91129,0.22662 1.8136,0.46875 2.8125,0.46875 5.56583,1e-5 10.09375,-3.78182 10.09375,-8.4375 0,-4.65568 -4.52793,-8.4375 -10.09375,-8.4375 -0.68208,0 -1.26206,0.2356 -1.90625,0.34375 0.56329,-1.86157 0.9375,-3.76107 0.9375,-5.78125 0,-12.32386 -11.15545,-22.34375 -24.9375,-22.34375 z"
         id="path11969"
         inkscape:original="M 110.53125 144.96875 C 100.76599 144.96875 92.384060 150.03292 88.281250 157.34375 C 86.642607 156.42892 84.835190 155.87500 82.906250 155.87500 C 77.073071 155.87500 72.219030 160.56753 70.718750 166.93750 C 68.157973 165.92533 65.180470 165.31250 62.000000 165.31250 C 52.458571 165.31250 44.718750 170.53296 44.718750 176.96875 C 44.718749 182.77816 51.066430 187.55402 59.312500 188.43750 C 58.942922 189.06456 58.656250 189.68551 58.656250 190.34375 C 58.656248 196.50568 75.538140 201.53125 96.343750 201.53125 C 117.14936 201.53125 134.03126 196.50568 134.03125 190.34375 C 134.03125 189.92916 133.77393 189.55916 133.62500 189.15625 C 134.53629 189.38287 135.43860 189.62500 136.43750 189.62500 C 142.00333 189.62501 146.53125 185.84318 146.53125 181.18750 C 146.53125 176.53182 142.00332 172.75000 136.43750 172.75000 C 135.75542 172.75000 135.17544 172.98560 134.53125 173.09375 C 135.09454 171.23218 135.46875 169.33268 135.46875 167.31250 C 135.46875 154.98864 124.31330 144.96875 110.53125 144.96875 z "
         inkscape:radius="0"
         sodipodi:type="inkscape:offset"
         style="color:#000000;fill:#ffffff;fill-opacity:1;fill-rule:nonzero;stroke:#6798e9;stroke-width:6.15399885;stroke-linecap:round;stroke-linejoin:round;stroke-miterlimit:0.5;stroke-opacity:1;stroke-dasharray:none;stroke-dashoffset:0;marker:none;visibility:visible;display:inline;overflow:visible" />
    </g>
  </g>
</svg>
