<?xml version="1.0" encoding="UTF-8" standalone="no"?>
<!-- Created with Inkscape (http://www.inkscape.org/) -->

<svg
   xmlns:dc="http://purl.org/dc/elements/1.1/"
   xmlns:cc="http://creativecommons.org/ns#"
   xmlns:rdf="http://www.w3.org/1999/02/22-rdf-syntax-ns#"
   xmlns:svg="http://www.w3.org/2000/svg"
   xmlns="http://www.w3.org/2000/svg"
   xmlns:sodipodi="http://sodipodi.sourceforge.net/DTD/sodipodi-0.dtd"
   xmlns:inkscape="http://www.inkscape.org/namespaces/inkscape"
   width="744.09448819"
   height="1052.3622047"
   id="svg3231"
   version="1.1"
   inkscape:version="0.48.4 r9939"
   sodipodi:docname="10-15.svg">
  <defs
     id="defs3233" />
  <sodipodi:namedview
     id="base"
     pagecolor="#ffffff"
     bordercolor="#666666"
     borderopacity="1.0"
     inkscape:pageopacity="0.0"
     inkscape:pageshadow="2"
     inkscape:zoom="0.35"
     inkscape:cx="375"
     inkscape:cy="748.57143"
     inkscape:document-units="px"
     inkscape:current-layer="layer1"
     showgrid="false"
     inkscape:window-width="457"
     inkscape:window-height="414"
     inkscape:window-x="508"
     inkscape:window-y="356"
     inkscape:window-maximized="0" />
  <metadata
     id="metadata3236">
    <rdf:RDF>
      <cc:Work
         rdf:about="">
        <dc:format>image/svg+xml</dc:format>
        <dc:type
           rdf:resource="http://purl.org/dc/dcmitype/StillImage" />
        <dc:title></dc:title>
      </cc:Work>
    </rdf:RDF>
  </metadata>
  <g
     inkscape:label="Layer 1"
     inkscape:groupmode="layer"
     id="layer1">
    <path
       inkscape:connector-curvature="0"
       style="color:#000000;fill:#6798e9;fill-opacity:1;fill-rule:nonzero;stroke:#6798e9;stroke-width:4;stroke-linecap:butt;stroke-linejoin:miter;stroke-miterlimit:3.20000005;stroke-opacity:1;stroke-dasharray:none;stroke-dashoffset:0;marker:none;visibility:visible;display:inline;overflow:visible"
       sodipodi:nodetypes="cccc"
       id="path8734"
       d="m 220.1547,217.83839 c -8.25047,7.26999 1.43684,13.46942 5.12033,3.48618 l 2.83253,-9.26017 -7.95286,5.77399 z" />
    <path
       inkscape:connector-curvature="0"
       style="color:#000000;fill:#6798e9;fill-opacity:1;fill-rule:nonzero;stroke:#6798e9;stroke-width:4;stroke-linecap:butt;stroke-linejoin:miter;stroke-miterlimit:3.20000005;stroke-opacity:1;stroke-dasharray:none;stroke-dashoffset:0;marker:none;visibility:visible;display:inline;overflow:visible"
       sodipodi:nodetypes="cccc"
       id="path8736"
       d="m 249.20325,219.03841 c -8.25047,7.26999 1.43684,13.46942 5.12033,3.48618 l 2.83253,-9.26017 -7.95286,5.77399 z" />
    <path
       inkscape:connector-curvature="0"
       style="color:#000000;fill:#6798e9;fill-opacity:1;fill-rule:nonzero;stroke:#6798e9;stroke-width:4;stroke-linecap:butt;stroke-linejoin:miter;stroke-miterlimit:3.20000005;stroke-opacity:1;stroke-dasharray:none;stroke-dashoffset:0;marker:none;visibility:visible;display:inline;overflow:visible"
       sodipodi:nodetypes="cccc"
       id="path8738"
       d="m 242.43961,203.69497 c -8.25047,7.26999 1.43684,13.46942 5.12033,3.48618 l 2.83253,-9.26017 -7.95286,5.77399 z" />
    <path
       inkscape:connector-curvature="0"
       style="color:#000000;fill:#6798e9;fill-opacity:1;fill-rule:nonzero;stroke:#6798e9;stroke-width:4;stroke-linecap:butt;stroke-linejoin:miter;stroke-miterlimit:3.20000005;stroke-opacity:1;stroke-dasharray:none;stroke-dashoffset:0;marker:none;visibility:visible;display:inline;overflow:visible"
       sodipodi:nodetypes="cccc"
       id="path10283"
       d="m 220.1547,217.83839 c -8.25047,7.26999 1.43684,13.46942 5.12033,3.48618 l 2.83253,-9.26017 -7.95286,5.77399 z" />
    <path
       inkscape:connector-curvature="0"
       style="color:#000000;fill:#6798e9;fill-opacity:1;fill-rule:nonzero;stroke:#6798e9;stroke-width:4;stroke-linecap:butt;stroke-linejoin:miter;stroke-miterlimit:3.20000005;stroke-opacity:1;stroke-dasharray:none;stroke-dashoffset:0;marker:none;visibility:visible;display:inline;overflow:visible"
       sodipodi:nodetypes="cccc"
       id="path10285"
       d="m 249.20325,219.03841 c -8.25047,7.26999 1.43684,13.46942 5.12033,3.48618 l 2.83253,-9.26017 -7.95286,5.77399 z" />
    <path
       inkscape:connector-curvature="0"
       style="color:#000000;fill:#6798e9;fill-opacity:1;fill-rule:nonzero;stroke:#6798e9;stroke-width:4;stroke-linecap:butt;stroke-linejoin:miter;stroke-miterlimit:3.20000005;stroke-opacity:1;stroke-dasharray:none;stroke-dashoffset:0;marker:none;visibility:visible;display:inline;overflow:visible"
       sodipodi:nodetypes="cccc"
       id="path10287"
       d="m 242.43961,203.69497 c -8.25047,7.26999 1.43684,13.46942 5.12033,3.48618 l 2.83253,-9.26017 -7.95286,5.77399 z" />
    <path
       inkscape:connector-curvature="0"
       style="color:#000000;fill:#6798e9;fill-opacity:1;fill-rule:nonzero;stroke:#6798e9;stroke-width:4;stroke-linecap:butt;stroke-linejoin:miter;stroke-miterlimit:3.20000005;stroke-opacity:1;stroke-dasharray:none;stroke-dashoffset:0;marker:none;visibility:visible;display:inline;overflow:visible"
       sodipodi:nodetypes="cccc"
       id="path6522-6"
       d="m 228.00881,231.95584 c -8.25048,7.26999 1.43684,13.46941 5.12033,3.48618 l 2.83253,-9.26017 -7.95286,5.77399 z" />
    <path
       style="fill:#000080;fill-opacity:1"
       d="m 259.10243,203.87823 c -1.72149,-0.89761 -2.28271,-2.88584 -1.24537,-4.41199 0.64941,-0.95543 1.42077,-1.21596 4.8792,-1.64795 10.36057,-1.29414 17.84033,-3.61769 20.51386,-6.37254 0.5668,-0.58405 0.61497,-0.70466 0.47553,-1.19083 -0.38015,-1.32551 0.0536,-2.68259 1.09463,-3.42513 0.62451,-0.44544 1.81744,-0.51488 4.19727,-0.24432 3.6476,0.41469 7.3528,-2.23341 7.34749,-5.25124 -0.005,-3.04882 -3.6294,-5.69448 -7.24108,-5.28621 -2.39074,0.27025 -3.33931,-0.003 -4.14188,-1.19263 -0.58954,-0.87395 -0.63636,-1.69777 -0.19246,-3.38699 0.4822,-1.83499 0.63686,-4.86901 0.34151,-6.69982 -0.61986,-3.84254 -2.34533,-7.09142 -5.36615,-10.10392 -3.21283,-3.20399 -7.22302,-5.26057 -11.99337,-6.15066 -2.23779,-0.41754 -6.74824,-0.40272 -8.84249,0.0291 -4.35192,0.89725 -8.21544,2.84206 -11.21982,5.64781 -1.19134,1.11258 -2.14786,2.28936 -3.90994,4.81026 -0.64542,0.92336 -1.06561,1.19745 -2.15934,1.40853 -0.57595,0.11116 -0.97196,0.0252 -2.4209,-0.52543 -0.95278,-0.36208 -2.16355,-0.71204 -2.6906,-0.77769 -3.58078,-0.44601 -7.48436,2.33758 -9.14531,6.5214 -0.27468,0.69192 -0.60226,1.6082 -0.72794,2.03618 -0.14169,0.48253 -0.50226,1.05231 -0.9491,1.49981 -1.045,1.04654 -1.76738,1.11835 -4.10817,0.40841 -2.54172,-0.77089 -4.19332,-1.03071 -6.59106,-1.03688 -6.16344,-0.0159 -11.60273,2.41682 -13.58708,6.0767 -0.53572,0.98806 -0.5922,1.22547 -0.58918,2.47621 0.003,1.17725 0.0759,1.52207 0.49008,2.31418 1.53653,2.93832 5.23877,5.11693 10.14128,5.96772 2.26223,0.39259 2.89469,0.72901 3.46235,1.84171 0.41264,0.80884 0.43286,1.56599 0.0703,2.6302 -0.33902,0.99498 -0.2133,1.26545 1.02163,2.19783 2.38663,1.80192 7.50525,3.54674 13.99192,4.76951 2.37201,0.44714 3.06128,0.71549 3.68401,1.43429 0.67254,0.77629 0.84962,1.73491 0.52607,2.84787 -0.31739,1.09178 -0.94296,1.72351 -2.02886,2.04885 -0.59554,0.17843 -1.02438,0.15071 -2.88865,-0.18673 -3.35904,-0.608 -6.79586,-1.46991 -9.32606,-2.33888 -6.75463,-2.31977 -10.25325,-5.01033 -11.16585,-8.58689 l -0.23806,-0.93298 -2.05605,-0.70197 c -3.32497,-1.13522 -5.60955,-2.42734 -7.67856,-4.34288 -5.51298,-5.10404 -5.54004,-12.72609 -0.0634,-17.87187 4.00467,-3.76278 9.4932,-5.70086 16.16608,-5.70849 2.22958,-0.003 3.30811,0.10554 6.21277,0.62265 0.601,0.107 0.61821,0.0935 1.03753,-0.81266 1.31311,-2.83772 3.97589,-5.83299 6.49798,-7.30936 3.17992,-1.86146 7.1639,-2.46421 10.43898,-1.57937 0.52118,0.14081 0.99356,0.19998 1.04975,0.13149 0.0562,-0.0685 0.50198,-0.63733 0.99065,-1.26408 1.60392,-2.05712 4.07095,-4.19147 6.81454,-5.89559 7.34083,-4.5596 16.98408,-5.55169 25.45768,-2.61907 5.70548,1.97461 10.56622,5.59901 13.74403,10.24823 2.86404,4.19016 4.16436,8.36158 4.22691,13.55998 l 0.0288,2.39531 1.55629,0.39413 c 3.68032,0.93204 6.74168,3.19428 8.27138,6.11224 2.46364,4.6995 1.01395,10.4394 -3.43917,13.61708 -2.00093,1.42783 -4.66743,2.41904 -7.04719,2.61962 l -1.17746,0.0992 -0.4443,0.87678 c -0.57691,1.13848 -2.25313,2.87455 -3.71166,3.84418 -4.34869,2.891 -12.15513,5.16222 -21.67144,6.30512 -3.35668,0.40314 -4.00257,0.41177 -4.67248,0.0625 l 0,0 z"
       id="path3527"
       inkscape:connector-curvature="0" />
    <path
       style="fill:#000080;fill-opacity:1"
       d="m 240.97814,214.17205 c -1.88589,-0.46871 -3.13449,-1.81028 -3.5887,-3.85589 -0.50122,-2.25736 0.7716,-5.23625 3.23651,-7.57465 0.89616,-0.85017 13.10446,-9.69044 13.15716,-9.52736 0.0229,0.0709 -0.96738,3.43601 -2.20065,7.47806 -2.58751,8.48059 -3.09059,9.66878 -4.83772,11.42599 -0.68091,0.68483 -1.51101,1.31592 -2.08698,1.58665 -1.08087,0.50804 -2.69216,0.71263 -3.67962,0.4672 l 0,0 z"
       id="path3529"
       inkscape:connector-curvature="0" />
    <path
       style="fill:#000080;fill-opacity:1"
       d="m 248.03504,229.57793 c -1.81522,-0.30571 -3.22577,-1.63709 -3.80659,-3.59292 -0.21029,-0.70814 -0.22594,-1.12153 -0.0811,-2.1427 0.29192,-2.05834 1.33359,-3.90447 3.22135,-5.70916 0.92981,-0.88889 13.03773,-9.70962 13.1601,-9.58726 0.12247,0.12247 -4.28656,14.42847 -4.80081,15.57725 -1.7392,3.88515 -4.67071,5.96378 -7.69294,5.45479 z"
       id="path3531"
       inkscape:connector-curvature="0" />
    <path
       style="fill:#000080;fill-opacity:1"
       d="m 218.98414,228.36804 c -1.29307,-0.21673 -2.74612,-1.23277 -3.31387,-2.31724 -0.5875,-1.1222 -0.7401,-2.02358 -0.56988,-3.36615 0.257,-2.02704 1.33878,-3.96665 3.21862,-5.77094 0.92968,-0.89232 13.10067,-9.69501 13.15973,-9.51781 0.0266,0.0796 -0.96204,3.44786 -2.19686,7.48495 -2.3598,7.71504 -3.06706,9.49351 -4.35908,10.96132 -1.69241,1.92268 -3.90999,2.86587 -5.93866,2.52587 z"
       id="path3533"
       inkscape:connector-curvature="0" />
    <path
       style="fill:#000080;fill-opacity:1"
       d="m 225.99514,242.1876 c -2.84775,-1.02403 -3.94475,-4.56651 -2.38109,-7.68914 0.47416,-0.94691 1.70684,-2.6496 2.40538,-3.32253 0.88054,-0.84827 13.18917,-9.73415 13.24932,-9.56499 0.0891,0.25067 -4.29353,14.37339 -4.82286,15.54124 -1.88139,4.15085 -5.27967,6.17572 -8.45075,5.03542 z"
       id="path3535"
       inkscape:connector-curvature="0" />
  </g>
</svg>
