<?xml version="1.0" encoding="UTF-8" standalone="no"?>
<!-- Created with Inkscape (http://www.inkscape.org/) -->

<svg
   xmlns:dc="http://purl.org/dc/elements/1.1/"
   xmlns:cc="http://creativecommons.org/ns#"
   xmlns:rdf="http://www.w3.org/1999/02/22-rdf-syntax-ns#"
   xmlns:svg="http://www.w3.org/2000/svg"
   xmlns="http://www.w3.org/2000/svg"
   xmlns:sodipodi="http://sodipodi.sourceforge.net/DTD/sodipodi-0.dtd"
   xmlns:inkscape="http://www.inkscape.org/namespaces/inkscape"
   width="744.09448819"
   height="1052.3622047"
   id="svg4428"
   version="1.1"
   inkscape:version="0.48.4 r9939"
   sodipodi:docname="New document 20">
  <defs
     id="defs4430" />
  <sodipodi:namedview
     id="base"
     pagecolor="#ffffff"
     bordercolor="#666666"
     borderopacity="1.0"
     inkscape:pageopacity="0.0"
     inkscape:pageshadow="2"
     inkscape:zoom="0.35"
     inkscape:cx="375"
     inkscape:cy="520"
     inkscape:document-units="px"
     inkscape:current-layer="layer1"
     showgrid="false"
     inkscape:window-width="457"
     inkscape:window-height="398"
     inkscape:window-x="3"
     inkscape:window-y="48"
     inkscape:window-maximized="0" />
  <metadata
     id="metadata4433">
    <rdf:RDF>
      <cc:Work
         rdf:about="">
        <dc:format>image/svg+xml</dc:format>
        <dc:type
           rdf:resource="http://purl.org/dc/dcmitype/StillImage" />
        <dc:title></dc:title>
      </cc:Work>
    </rdf:RDF>
  </metadata>
  <g
     inkscape:label="Layer 1"
     inkscape:groupmode="layer"
     id="layer1">
    <path
       style="fill:#000080;fill-opacity:1"
       d="m 374.5291,569.64313 c -1.81522,-0.30571 -3.22577,-1.63709 -3.80659,-3.59292 -0.21029,-0.70814 -0.22594,-1.12153 -0.0811,-2.1427 0.29192,-2.05834 1.33359,-3.90447 3.22135,-5.70916 0.92981,-0.88889 13.03773,-9.70962 13.1601,-9.58726 0.12247,0.12247 -4.28656,14.42847 -4.80081,15.57725 -1.7392,3.88515 -4.67071,5.96378 -7.69294,5.45479 z"
       id="path3531"
       inkscape:connector-curvature="0" />
    <path
       style="fill:#000080;fill-opacity:1"
       d="m 345.4782,568.43324 c -1.29307,-0.21673 -2.74612,-1.23277 -3.31387,-2.31724 -0.5875,-1.1222 -0.7401,-2.02358 -0.56988,-3.36615 0.257,-2.02704 1.33878,-3.96665 3.21862,-5.77094 0.92968,-0.89232 13.10067,-9.69501 13.15973,-9.51781 0.0266,0.0796 -0.96204,3.44786 -2.19686,7.48495 -2.3598,7.71504 -3.06706,9.49351 -4.35908,10.96132 -1.69241,1.92268 -3.90999,2.86587 -5.93866,2.52587 z"
       id="path3533"
       inkscape:connector-curvature="0" />
    <path
       style="fill:#000080;fill-opacity:1"
       d="m 352.4892,582.25281 c -2.84775,-1.02404 -3.94475,-4.56652 -2.38109,-7.68915 0.47416,-0.94691 1.70684,-2.6496 2.40538,-3.32253 0.88054,-0.84827 13.18917,-9.73415 13.24932,-9.56499 0.0891,0.25067 -4.29353,14.37339 -4.82286,15.54124 -1.88139,4.15085 -5.27967,6.17573 -8.45075,5.03543 z"
       id="path3535"
       inkscape:connector-curvature="0" />
    <path
       style="fill:#000080;fill-opacity:1;stroke:#000080;stroke-width:0.17292199"
       d="m 366.99799,554.09382 c -1.36081,-0.50783 -2.44267,-1.67019 -2.89856,-3.11425 -0.1286,-0.40735 -0.18156,-1.24146 -0.13506,-2.12732 0.0691,-1.31705 0.15389,-1.60926 0.8811,-3.03739 0.44254,-0.86907 0.78302,-1.60174 0.75662,-1.62813 -0.0264,-0.0264 -0.76262,-0.12896 -1.63605,-0.2279 -0.87343,-0.0989 -2.07559,-0.29484 -2.67147,-0.43533 -0.59588,-0.14049 -1.76036,-0.25659 -2.58774,-0.258 -2.33743,-0.004 -7.46564,-1.07917 -11.7242,-2.45815 -3.6951,-1.19651 -6.38715,-2.53291 -8.49366,-4.21645 -1.39353,-1.11371 -2.26296,-2.2666 -3.01646,-3.99992 l -0.57043,-1.31218 -2.04383,-0.84454 c -4.29408,-1.77437 -6.15374,-2.94009 -8.25696,-5.17582 -4.52432,-4.80938 -4.48304,-11.47451 0.10106,-16.3173 2.84321,-3.00365 6.64004,-4.98436 11.32152,-5.90613 1.71183,-0.33705 7.01627,-0.43154 10.27909,-0.1831 l 1.8277,0.13916 1.26094,-1.91474 c 2.1821,-3.31352 4.36779,-5.35689 7.11708,-6.65366 2.48872,-1.17387 5.16148,-1.5407 8.3059,-1.13998 l 1.72289,0.21956 2.00619,-2.10544 c 4.06945,-4.27078 8.52461,-6.90451 14.01606,-8.28577 2.86589,-0.72086 5.38422,-0.96093 8.76917,-0.83596 9.72416,0.35901 18.42903,5.30467 23.17366,13.16609 2.08613,3.45652 2.96342,6.41682 3.38486,11.4217 0.19343,2.29708 0.28472,3.05048 0.3747,3.09205 0.028,0.0129 0.59554,0.20606 1.26129,0.42919 1.93346,0.64803 4.24813,1.83406 5.23702,2.68343 1.9683,1.6906 3.4045,3.80756 3.82664,5.64048 0.26489,1.15012 0.22482,4.25449 -0.0692,5.35928 -1.11916,4.20571 -4.76173,7.27697 -10.03294,8.45935 -2.04919,0.45965 -2.28514,0.55262 -2.67937,1.05574 -2.19619,2.80275 -3.43903,3.84142 -6.31166,5.27477 -6.50286,3.24472 -16.52156,5.20739 -29.31027,5.74191 l -3.19906,0.13371 -1.04742,2.6214 c -1.17626,2.94386 -1.56729,3.61196 -2.85712,4.88161 -1.73085,1.70376 -4.35075,2.50413 -6.08206,1.85803 l 0,0 z m 17.20938,-14.74858 c -0.11707,-0.0474 -0.35051,-0.0503 -0.51876,-0.006 -0.16825,0.0438 -0.0725,0.0826 0.21286,0.0861 0.28532,0.004 0.42298,-0.0323 0.3059,-0.0797 l 0,10e-6 z m -5.11605,-1.4753 c -0.0552,-0.13794 -0.0962,-0.097 -0.10447,0.10448 -0.008,0.18228 0.0334,0.28442 0.0908,0.22696 0.0575,-0.0575 0.0636,-0.20661 0.0136,-0.33144 l 10e-6,0 z m 0.17292,-0.69169 c -0.0552,-0.13794 -0.0962,-0.097 -0.10447,0.10448 -0.008,0.18228 0.0334,0.28442 0.0908,0.22696 0.0575,-0.0575 0.0636,-0.20661 0.0136,-0.33144 l 1e-5,0 z"
       id="path4412"
       inkscape:connector-curvature="0" />
  </g>
</svg>
