<?xml version="1.0" encoding="UTF-8" standalone="no"?>
<!-- Created with Inkscape (http://www.inkscape.org/) -->

<svg
   xmlns:dc="http://purl.org/dc/elements/1.1/"
   xmlns:cc="http://creativecommons.org/ns#"
   xmlns:rdf="http://www.w3.org/1999/02/22-rdf-syntax-ns#"
   xmlns:svg="http://www.w3.org/2000/svg"
   xmlns="http://www.w3.org/2000/svg"
   xmlns:sodipodi="http://sodipodi.sourceforge.net/DTD/sodipodi-0.dtd"
   xmlns:inkscape="http://www.inkscape.org/namespaces/inkscape"
   width="744.09448819"
   height="1052.3622047"
   id="svg3231"
   version="1.1"
   inkscape:version="0.48.4 r9939"
   sodipodi:docname="1-3.svg">
  <defs
     id="defs3233" />
  <sodipodi:namedview
     id="base"
     pagecolor="#ffffff"
     bordercolor="#666666"
     borderopacity="1.0"
     inkscape:pageopacity="0.0"
     inkscape:pageshadow="2"
     inkscape:zoom="0.35"
     inkscape:cx="375"
     inkscape:cy="520"
     inkscape:document-units="px"
     inkscape:current-layer="layer1"
     showgrid="false"
     inkscape:window-width="457"
     inkscape:window-height="414"
     inkscape:window-x="508"
     inkscape:window-y="356"
     inkscape:window-maximized="0" />
  <metadata
     id="metadata3236">
    <rdf:RDF>
      <cc:Work
         rdf:about="">
        <dc:format>image/svg+xml</dc:format>
        <dc:type
           rdf:resource="http://purl.org/dc/dcmitype/StillImage" />
        <dc:title></dc:title>
      </cc:Work>
    </rdf:RDF>
  </metadata>
  <g
     inkscape:label="Layer 1"
     inkscape:groupmode="layer"
     id="layer1">
    <g
       id="g13537"
       transform="translate(144.86036,343.99447)">
      <path
         inkscape:connector-curvature="0"
         d="m 245.03509,147.27428 c -9.76526,0 -18.12802,5.08966 -22.23083,12.40049 -1.63864,-0.91482 -3.46355,-1.47494 -5.39249,-1.47494 -5.83318,0 -10.6857,4.69214 -12.18598,11.06211 -2.56078,-1.01218 -5.51626,-1.63883 -8.69673,-1.63883 -9.54143,0 -17.28771,5.22722 -17.28771,11.66301 0,5.80941 6.34539,10.58835 14.59146,11.47183 -0.36958,0.62706 -0.66085,1.25372 -0.66085,1.91196 0,6.16193 16.889,11.17137 37.69461,11.17137 20.80561,0 37.69461,-5.00944 37.6946,-11.17137 0,-0.41459 -0.274,-0.79889 -0.42293,-1.2018 0.91129,0.22662 1.82952,0.46433 2.82842,0.46433 5.56583,0 10.07127,-3.7843 10.07127,-8.43998 0,-4.65568 -4.50545,-8.41267 -10.07127,-8.41267 -0.68208,0 -1.28548,0.21962 -1.92967,0.32777 0.56329,-1.86157 0.95161,-3.77036 0.95161,-5.79054 0,-12.32386 -11.17146,-22.34274 -24.95351,-22.34274 z"
         id="path8702"
         style="color:#000000;fill:#ffffff;fill-opacity:1;fill-rule:nonzero;stroke:#6798e9;stroke-width:6.15399885;stroke-linecap:round;stroke-linejoin:round;stroke-miterlimit:0.5;stroke-opacity:1;stroke-dasharray:none;stroke-dashoffset:0;marker:none;visibility:visible;display:inline;overflow:visible" />
      <path
         inkscape:connector-curvature="0"
         d="m 208.3272,221.07782 c -8.25047,7.26999 1.43684,13.46942 5.12033,3.48618 l 2.83253,-9.26017 -7.95286,5.77399 z"
         id="path8704"
         sodipodi:nodetypes="cccc"
         style="color:#000000;fill:#6798e9;fill-opacity:1;fill-rule:nonzero;stroke:#6798e9;stroke-width:4;stroke-linecap:butt;stroke-linejoin:miter;stroke-miterlimit:3.20000005;stroke-opacity:1;stroke-dasharray:none;stroke-dashoffset:0;marker:none;visibility:visible;display:inline;overflow:visible" />
      <path
         inkscape:connector-curvature="0"
         d="m 229.20027,221.8509 c -8.25047,7.26999 1.43684,13.46942 5.12033,3.48618 l 2.83253,-9.26017 -7.95286,5.77399 z"
         id="path8706"
         sodipodi:nodetypes="cccc"
         style="color:#000000;fill:#6798e9;fill-opacity:1;fill-rule:nonzero;stroke:#6798e9;stroke-width:4;stroke-linecap:butt;stroke-linejoin:miter;stroke-miterlimit:3.20000005;stroke-opacity:1;stroke-dasharray:none;stroke-dashoffset:0;marker:none;visibility:visible;display:inline;overflow:visible" />
    </g>
  </g>
</svg>
