<?xml version="1.0" encoding="UTF-8" standalone="no"?>
<!-- Created with Inkscape (http://www.inkscape.org/) -->
<svg
   xmlns:dc="http://purl.org/dc/elements/1.1/"
   xmlns:cc="http://web.resource.org/cc/"
   xmlns:rdf="http://www.w3.org/1999/02/22-rdf-syntax-ns#"
   xmlns:svg="http://www.w3.org/2000/svg"
   xmlns="http://www.w3.org/2000/svg"
   xmlns:sodipodi="http://sodipodi.sourceforge.net/DTD/sodipodi-0.dtd"
   xmlns:inkscape="http://www.inkscape.org/namespaces/inkscape"
   height="355.90973"
   id="svg2"
   inkscape:label="Pozadí"
   inkscape:version="0.45.1"
   sodipodi:docbase="/Users/johnolsen/Desktop/openclipart-0.20-pre/recovered-zerobyte-files/signs_and_symbols"
   sodipodi:docname="simple_weather_symbols_05r.svg"
   sodipodi:version="0.32"
   width="652.3902"
   inkscape:output_extension="org.inkscape.output.svg.inkscape"
   version="1.0">
  <metadata
     id="metadata3">
    <rdf:RDF>
      <cc:Work
         rdf:about="">
        <dc:title>simple weather symbols</dc:title>
        <dc:description />
        <dc:subject>
          <rdf:Bag>
            <rdf:li>weathersym</rdf:li>
            <rdf:li>weather</rdf:li>
            <rdf:li>symbols</rdf:li>
          </rdf:Bag>
        </dc:subject>
        <dc:publisher>
          <cc:Agent
             rdf:about="http://www.openclipart.org/">
            <dc:title>Open Clip Art Library</dc:title>
          </cc:Agent>
        </dc:publisher>
        <dc:creator>
          <cc:Agent>
            <dc:title>rztka</dc:title>
          </cc:Agent>
        </dc:creator>
        <dc:rights>
          <cc:Agent>
            <dc:title>rztka</dc:title>
          </cc:Agent>
        </dc:rights>
        <dc:date>2005-09-25</dc:date>
        <dc:format>image/svg+xml</dc:format>
        <dc:type
           rdf:resource="http://purl.org/dc/dcmitype/StillImage" />
        <cc:license
           rdf:resource="http://web.resource.org/cc/PublicDomain" />
        <dc:language>en</dc:language>
      </cc:Work>
      <cc:License
         rdf:about="http://web.resource.org/cc/PublicDomain">
        <cc:permits
           rdf:resource="http://web.resource.org/cc/Reproduction" />
        <cc:permits
           rdf:resource="http://web.resource.org/cc/Distribution" />
        <cc:permits
           rdf:resource="http://web.resource.org/cc/DerivativeWorks" />
      </cc:License>
    </rdf:RDF>
  </metadata>
  <defs
     id="defs3" />
  <sodipodi:namedview
     bordercolor="#666666"
     borderopacity="1.0"
     id="base"
     inkscape:current-layer="layer1"
     inkscape:cx="711.97607"
     inkscape:cy="734.87000"
     inkscape:document-units="px"
     inkscape:guide-bbox="true"
     inkscape:pageopacity="0.0"
     inkscape:pageshadow="2"
     inkscape:window-height="744"
     inkscape:window-width="1129"
     inkscape:window-x="-4"
     inkscape:window-y="-4"
     inkscape:zoom="0.62412718"
     pagecolor="#ffffff"
     showguides="true" />
  <g
     id="layer1"
     inkscape:groupmode="layer"
     inkscape:label="Vrstva 1"
     transform="translate(-41.446903,-34.271419)">
    <g
       id="g3517"
       transform="matrix(0.862837,0,0,0.862837,4.758434,15.25495)">
      <path
         d="M 310.66382,132.06057 C 308.83679,134.10487 288.45343,113.67749 285.77048,114.68246 C 283.08753,115.68743 279.03265,148.32438 276.19521,148.69411 C 273.35777,149.06384 268.47975,115.6053 265.71437,114.80628 C 262.94898,114.00725 246.93507,134.1478 244.53473,132.6352 C 242.13439,131.12261 250.23445,106.53712 248.89959,103.96463 C 247.56472,101.39214 217.03654,100.18431 216.40777,97.31453 C 215.77901,94.44475 244.07632,86.915154 244.31025,84.072766 C 244.54419,81.230379 225.31197,65.170616 226.41327,62.678968 C 227.51458,60.187321 253.26783,70.856367 255.00756,68.670558 C 256.74728,66.484749 251.61574,38.987069 254.25587,38.16346 C 256.896,37.339852 272.75893,56.648787 275.5774,56.556432 C 278.39587,56.464078 286.88052,32.268747 289.75998,32.834115 C 292.63945,33.399483 291.20327,58.501746 293.43224,60.177765 C 295.66121,61.853784 317.70385,53.894885 319.33899,56.17282 C 320.97413,58.450756 306.69976,80.617845 307.55944,83.24573 C 308.41912,85.873615 334.57127,88.38123 334.21401,91.098204 C 333.85675,93.815177 301.51488,94.973798 300.16717,97.605407 C 298.81947,100.23702 312.49085,130.01627 310.66382,132.06057 z "
         id="path2035"
         inkscape:flatsided="false"
         inkscape:randomized="-0.092"
         inkscape:rounded="0.1"
         sodipodi:arg1="0.79570711"
         sodipodi:arg2="1.144773"
         sodipodi:cx="275.15002"
         sodipodi:cy="88.090233"
         sodipodi:r1="57.019234"
         sodipodi:r2="32.818508"
         sodipodi:sides="9"
         sodipodi:type="star"
         style="opacity:1;color:#000000;fill:#f5ff12;fill-opacity:1;fill-rule:nonzero;stroke:none;stroke-width:0.2;stroke-linecap:butt;stroke-linejoin:miter;marker:none;marker-start:none;marker-mid:none;marker-end:none;stroke-miterlimit:0.5;stroke-dasharray:none;stroke-dashoffset:0;stroke-opacity:1;visibility:visible;display:inline;overflow:visible"
         transform="translate(-162.3409,-10.78489)" />
      <path
         d="M 194.51692 77.283737 A 39.900909 37.407101 0 1 1  114.7151,77.283737 A 39.900909 37.407101 0 1 1  194.51692 77.283737 z"
         id="path1305"
         sodipodi:cx="154.61601"
         sodipodi:cy="77.283737"
         sodipodi:rx="39.900909"
         sodipodi:ry="37.407101"
         sodipodi:type="arc"
         style="opacity:1;color:#000000;fill:#ffffff;fill-opacity:1;fill-rule:nonzero;stroke:#f5ff12;stroke-width:7.692451;stroke-linecap:butt;stroke-linejoin:miter;marker:none;marker-start:none;marker-mid:none;marker-end:none;stroke-miterlimit:0.5;stroke-dasharray:none;stroke-dashoffset:0;stroke-opacity:1;visibility:visible;display:inline;overflow:visible"
         transform="matrix(0.979973,0,0,0.87717,-39.12591,6.604884)" />
    </g>
    <g
       id="g13507"
       transform="translate(-1.589184,16.55716)">
      <g
         id="g4992"
         transform="matrix(0.778385,0,0,0.778385,134.0193,5.451914)">
        <path
           d="M 310.66382,132.06057 C 308.83679,134.10487 288.45343,113.67749 285.77048,114.68246 C 283.08753,115.68743 279.03265,148.32438 276.19521,148.69411 C 273.35777,149.06384 268.47975,115.6053 265.71437,114.80628 C 262.94898,114.00725 246.93507,134.1478 244.53473,132.6352 C 242.13439,131.12261 250.23445,106.53712 248.89959,103.96463 C 247.56472,101.39214 217.03654,100.18431 216.40777,97.31453 C 215.77901,94.44475 244.07632,86.915154 244.31025,84.072766 C 244.54419,81.230379 225.31197,65.170616 226.41327,62.678968 C 227.51458,60.187321 253.26783,70.856367 255.00756,68.670558 C 256.74728,66.484749 251.61574,38.987069 254.25587,38.16346 C 256.896,37.339852 272.75893,56.648787 275.5774,56.556432 C 278.39587,56.464078 286.88052,32.268747 289.75998,32.834115 C 292.63945,33.399483 291.20327,58.501746 293.43224,60.177765 C 295.66121,61.853784 317.70385,53.894885 319.33899,56.17282 C 320.97413,58.450756 306.69976,80.617845 307.55944,83.24573 C 308.41912,85.873615 334.57127,88.38123 334.21401,91.098204 C 333.85675,93.815177 301.51488,94.973798 300.16717,97.605407 C 298.81947,100.23702 312.49085,130.01627 310.66382,132.06057 z "
           id="path4994"
           inkscape:flatsided="false"
           inkscape:randomized="-0.092"
           inkscape:rounded="0.1"
           sodipodi:arg1="0.79570711"
           sodipodi:arg2="1.144773"
           sodipodi:cx="275.15002"
           sodipodi:cy="88.090233"
           sodipodi:r1="57.019234"
           sodipodi:r2="32.818508"
           sodipodi:sides="9"
           sodipodi:type="star"
           style="opacity:1;color:#000000;fill:#f5ff12;fill-opacity:1;fill-rule:nonzero;stroke:none;stroke-width:0.2;stroke-linecap:butt;stroke-linejoin:miter;marker:none;marker-start:none;marker-mid:none;marker-end:none;stroke-miterlimit:0.5;stroke-dasharray:none;stroke-dashoffset:0;stroke-opacity:1;visibility:visible;display:inline;overflow:visible"
           transform="translate(-162.3409,-10.78489)" />
        <path
           d="M 194.51692 77.283737 A 39.900909 37.407101 0 1 1  114.7151,77.283737 A 39.900909 37.407101 0 1 1  194.51692 77.283737 z"
           id="path4996"
           sodipodi:cx="154.61601"
           sodipodi:cy="77.283737"
           sodipodi:rx="39.900909"
           sodipodi:ry="37.407101"
           sodipodi:type="arc"
           style="opacity:1;color:#000000;fill:#ffffff;fill-opacity:1;fill-rule:nonzero;stroke:#f5ff12;stroke-width:8.52705479;stroke-linecap:butt;stroke-linejoin:miter;marker:none;marker-start:none;marker-mid:none;marker-end:none;stroke-miterlimit:0.5;stroke-dasharray:none;stroke-dashoffset:0;stroke-opacity:1;visibility:visible;display:inline;overflow:visible"
           transform="matrix(0.979973,0,0,0.87717,-39.12591,6.604884)" />
      </g>
      <path
         d="M 268.23822,54.989654 C 262.44165,54.989654 257.4776,58.010826 255.0422,62.350472 C 254.06952,61.807441 252.98627,61.474956 251.84127,61.474956 C 248.37875,61.474956 245.49834,64.260172 244.60778,68.041326 C 243.08773,67.440507 241.33338,67.06853 239.44548,67.06853 C 233.78178,67.06853 229.18366,70.171365 229.18366,73.991591 C 229.18366,77.440004 232.95022,80.276735 237.84502,80.80116 C 237.62564,81.173383 237.45275,81.54536 237.45275,81.936088 C 237.45275,85.593749 247.4779,88.567307 259.82792,88.567307 C 272.17793,88.567307 282.2031,85.593749 282.2031,81.936088 C 282.2031,81.689987 282.04044,81.461872 281.95204,81.222706 C 282.49298,81.357229 283.03803,81.498332 283.63096,81.498332 C 286.93479,81.498332 289.60917,79.252001 289.60917,76.488433 C 289.60917,73.724865 286.93478,71.494751 283.63096,71.49475 C 283.22609,71.49475 282.86792,71.625112 282.48553,71.689308 C 282.81989,70.5843 283.0504,69.451258 283.0504,68.252098 C 283.0504,60.93677 276.41912,54.989654 268.23822,54.989654 z "
         id="path4990"
         style="opacity:1;color:#000000;fill:#ffffff;fill-opacity:1;fill-rule:nonzero;stroke:#6778e9;stroke-width:6.15399075;stroke-linecap:round;stroke-linejoin:round;marker:none;marker-start:none;marker-mid:none;marker-end:none;stroke-miterlimit:0.5;stroke-dasharray:none;stroke-dashoffset:0;stroke-opacity:1;visibility:visible;display:inline;overflow:visible" />
    </g>
    <g
       id="g13520"
       transform="translate(-7.92535,19.20606)">
      <path
         d="M 310.66382,132.06057 C 308.83679,134.10487 288.45343,113.67749 285.77048,114.68246 C 283.08753,115.68743 279.03265,148.32438 276.19521,148.69411 C 273.35777,149.06384 268.47975,115.6053 265.71437,114.80628 C 262.94898,114.00725 246.93507,134.1478 244.53473,132.6352 C 242.13439,131.12261 250.23445,106.53712 248.89959,103.96463 C 247.56472,101.39214 217.03654,100.18431 216.40777,97.31453 C 215.77901,94.44475 244.07632,86.915154 244.31025,84.072766 C 244.54419,81.230379 225.31197,65.170616 226.41327,62.678968 C 227.51458,60.187321 253.26783,70.856367 255.00756,68.670558 C 256.74728,66.484749 251.61574,38.987069 254.25587,38.16346 C 256.896,37.339852 272.75893,56.648787 275.5774,56.556432 C 278.39587,56.464078 286.88052,32.268747 289.75998,32.834115 C 292.63945,33.399483 291.20327,58.501746 293.43224,60.177765 C 295.66121,61.853784 317.70385,53.894885 319.33899,56.17282 C 320.97413,58.450756 306.69976,80.617845 307.55944,83.24573 C 308.41912,85.873615 334.57127,88.38123 334.21401,91.098204 C 333.85675,93.815177 301.51488,94.973798 300.16717,97.605407 C 298.81947,100.23702 312.49085,130.01627 310.66382,132.06057 z "
         id="path5022"
         inkscape:flatsided="false"
         inkscape:randomized="-0.092"
         inkscape:rounded="0.1"
         sodipodi:arg1="0.79570711"
         sodipodi:arg2="1.144773"
         sodipodi:cx="275.15002"
         sodipodi:cy="88.090233"
         sodipodi:r1="57.019234"
         sodipodi:r2="32.818508"
         sodipodi:sides="9"
         sodipodi:type="star"
         style="opacity:1;color:#000000;fill:#f5ff12;fill-opacity:1;fill-rule:nonzero;stroke:none;stroke-width:0.2;stroke-linecap:butt;stroke-linejoin:miter;marker:none;marker-start:none;marker-mid:none;marker-end:none;stroke-miterlimit:0.5;stroke-dasharray:none;stroke-dashoffset:0;stroke-opacity:1;visibility:visible;display:inline;overflow:visible"
         transform="matrix(0.467783,0,0,0.467783,349.6876,17.16844)" />
      <path
         d="M 194.51692 77.283737 A 39.900909 37.407101 0 1 1  114.7151,77.283737 A 39.900909 37.407101 0 1 1  194.51692 77.283737 z"
         id="path5024"
         sodipodi:cx="154.61601"
         sodipodi:cy="77.283737"
         sodipodi:rx="39.900909"
         sodipodi:ry="37.407101"
         sodipodi:type="arc"
         style="opacity:1;color:#000000;fill:#ffffff;fill-opacity:1;fill-rule:nonzero;stroke:#f5ff12;stroke-width:13.29086399;stroke-linecap:butt;stroke-linejoin:miter;marker:none;marker-start:none;marker-mid:none;marker-end:none;stroke-miterlimit:0.5;stroke-dasharray:none;stroke-dashoffset:0;stroke-opacity:1;visibility:visible;display:inline;overflow:visible"
         transform="matrix(0.458415,0,0,0.410325,407.3255,25.30308)" />
      <path
         d="M 512.48651,36.237322 C 502.72125,36.237322 494.35849,41.326982 490.25568,48.637812 C 488.61704,47.722992 486.79213,47.162872 484.86319,47.162872 C 479.03001,47.162872 474.17749,51.855012 472.67721,58.224982 C 470.11643,57.212802 467.16095,56.586152 463.98048,56.586152 C 454.43905,56.586152 446.69277,61.813372 446.69277,68.249162 C 446.69277,74.058572 453.03816,78.837512 461.28423,79.720992 C 460.91465,80.348052 460.62338,80.974712 460.62338,81.632952 C 460.62338,87.794882 477.51238,92.804322 498.31799,92.804322 C 519.1236,92.804322 536.0126,87.794882 536.01259,81.632952 C 536.01259,81.218362 535.73859,80.834062 535.58966,80.431152 C 536.50095,80.657772 537.41918,80.895482 538.41808,80.895482 C 543.98391,80.895482 548.48935,77.111182 548.48935,72.455502 C 548.48935,67.799822 543.9839,64.042832 538.41808,64.042832 C 537.736,64.042832 537.1326,64.262452 536.48841,64.370602 C 537.0517,62.509032 537.44002,60.600242 537.44002,58.580062 C 537.44002,46.256202 526.26856,36.237322 512.48651,36.237322 z "
         id="path5030"
         style="opacity:1;color:#000000;fill:#ffffff;fill-opacity:1;fill-rule:nonzero;stroke:#6798e9;stroke-width:6.15399885;stroke-linecap:round;stroke-linejoin:round;marker:none;marker-start:none;marker-mid:none;marker-end:none;stroke-miterlimit:0.5;stroke-dasharray:none;stroke-dashoffset:0;stroke-opacity:1;visibility:visible;display:inline;overflow:visible" />
      <path
         d="M 535.67773,60.932293 C 529.88116,60.932293 524.91711,63.953463 522.48171,68.293103 C 521.50903,67.750073 520.42578,67.417593 519.28078,67.417593 C 515.81826,67.417593 512.93785,70.202803 512.04729,73.983963 C 510.52724,73.383143 508.77289,73.011163 506.88499,73.011163 C 501.22129,73.011163 496.62317,76.114003 496.62317,79.934223 C 496.62317,83.382643 500.38973,86.219373 505.28453,86.743793 C 505.06515,87.116013 504.89226,87.487993 504.89226,87.878723 C 504.89226,91.536383 514.91741,94.509943 527.26743,94.509943 C 539.61744,94.509943 549.64261,91.536383 549.64261,87.878723 C 549.64261,87.632623 549.47995,87.404503 549.39155,87.165343 C 549.93249,87.299863 550.47754,87.440963 551.07047,87.440963 C 554.3743,87.440963 557.04868,85.194633 557.04868,82.431063 C 557.04868,79.667503 554.37429,77.437383 551.07047,77.437383 C 550.6656,77.437383 550.30743,77.567743 549.92504,77.631943 C 550.2594,76.526933 550.48991,75.393893 550.48991,74.194733 C 550.48991,66.879403 543.85863,60.932293 535.67773,60.932293 z "
         id="path5044"
         style="opacity:1;color:#000000;fill:#386195;fill-opacity:1;fill-rule:nonzero;stroke:#386195;stroke-width:6.15399075;stroke-linecap:round;stroke-linejoin:round;marker:none;marker-start:none;marker-mid:none;marker-end:none;stroke-miterlimit:0.5;stroke-dasharray:none;stroke-dashoffset:0;stroke-opacity:1;visibility:visible;display:inline;overflow:visible" />
    </g>
    <g
       id="g13526"
       transform="translate(-4.806697,21.68701)">
      <path
         d="M 679.98743,63.079502 C 678.69188,63.092633 680.50154,62.601468 677.19906,62.671348 C 675.70379,62.702986 673.44421,63.305886 671.5459,63.937681 C 669.59864,64.585772 666.24487,65.865856 664.0006,66.432483 C 659.40302,67.593273 661.93281,67.04271 655.0684,68.127755 C 647.95321,69.252444 646.34952,69.398026 644.76496,69.325936 C 643.24876,69.256959 639.49772,69.720468 635.97203,69.248135 C 632.81221,68.82482 631.60081,69.141698 630.87033,69.646752 C 630.13985,70.151798 629.71156,71.067181 629.75351,72.033776 C 629.79546,73.000361 630.30093,73.863992 631.07165,74.285845 C 631.79018,74.719764 632.8867,75.393567 634.71001,76.005764 C 639.35681,77.565971 646.19439,78.639389 653.7817,78.639389 C 661.36901,78.639389 668.20659,77.565971 672.85338,76.005764 C 674.79376,75.354267 676.01981,74.631368 676.77711,74.151477 C 677.42574,73.746918 677.8667,73.019358 677.96612,72.189695 C 678.1793,70.356537 679.2895,68.844367 680.84352,68.266131 C 682.02266,67.906358 682.75911,66.582855 682.53515,65.226003 C 682.31119,63.869151 681.20796,62.99821 679.98743,63.079502 z "
         id="path10252"
         sodipodi:nodetypes="cszsssssscssssscsc"
         style="color:#000000;fill:#ffffff;fill-opacity:1;fill-rule:nonzero;stroke:none;stroke-width:6.15399885;stroke-linecap:round;stroke-linejoin:round;marker:none;marker-start:none;marker-mid:none;marker-end:none;stroke-miterlimit:0.5;stroke-dashoffset:0;stroke-opacity:1;visibility:visible;display:inline;overflow:visible" />
      <path
         d="M 629.76615,31.369991 C 620.81978,31.369991 613.15829,36.032847 609.39953,42.730613 C 607.8983,41.892507 606.22642,41.379357 604.45924,41.379357 C 599.11521,41.379357 594.66961,45.678028 593.29514,51.513831 C 590.9491,50.58653 588.24146,50.012429 585.32769,50.012429 C 576.58638,50.012429 569.48968,54.80131 569.48968,60.697414 C 569.48968,66.019664 575.30296,70.397856 582.85754,71.20725 C 582.51895,71.781727 582.25211,72.355837 582.25211,72.958879 C 582.25211,78.604088 597.72485,83.193452 616.78576,83.193452 C 635.84667,83.193452 651.31941,78.604088 651.3194,72.958879 C 651.3194,72.579056 651.06838,72.226982 650.93194,71.857859 C 651.76681,72.065475 652.60804,72.283251 653.52318,72.283251 C 658.62227,72.283251 662.7499,68.816291 662.7499,64.551023 C 662.7499,60.285754 658.62226,56.843814 653.52318,56.843814 C 652.89829,56.843814 652.34549,57.045017 651.75532,57.144098 C 652.27138,55.438634 652.62713,53.689909 652.62713,51.839135 C 652.62713,40.548717 642.39248,31.369991 629.76615,31.369991 z "
         id="path5040"
         style="opacity:1;color:#000000;fill:#ffffff;fill-opacity:1;fill-rule:nonzero;stroke:#6798e9;stroke-width:6.15400219;stroke-linecap:round;stroke-linejoin:round;marker:none;marker-start:none;marker-mid:none;marker-end:none;stroke-miterlimit:0.5;stroke-dasharray:none;stroke-dashoffset:0;stroke-opacity:1;visibility:visible;display:inline;overflow:visible" />
      <path
         d="M 658.90564,33.007376 C 650.70016,33.007376 643.67316,37.680008 640.22566,44.3918 C 638.84876,43.551944 637.31533,43.037722 635.6945,43.037722 C 630.79304,43.037722 626.71559,47.345399 625.45494,53.193442 C 623.30319,52.264189 620.81977,51.688879 618.1473,51.688879 C 610.1299,51.688879 603.62091,56.487819 603.62091,62.396254 C 603.62091,67.729672 608.95276,72.117045 615.88173,72.928124 C 615.57119,73.50381 615.32645,74.079121 615.32645,74.683427 C 615.32645,80.340463 629.5178,84.939455 647.00021,84.939455 C 664.4826,84.939455 678.674,80.340463 678.674,74.683427 C 678.674,74.302806 678.44374,73.949981 678.3186,73.580107 C 679.08435,73.788144 679.8559,74.006388 680.69525,74.006388 C 685.37208,74.006388 689.15786,70.532154 689.15786,66.257953 C 689.15786,61.983752 685.37205,58.534583 680.69525,58.534583 C 680.12212,58.534583 679.61511,58.736199 679.0738,58.8355 C 679.54711,57.126462 679.87342,55.374073 679.87342,53.519415 C 679.87342,42.205342 670.48632,33.007376 658.90564,33.007376 z "
         id="path5042"
         style="opacity:1;color:#000000;fill:#6798e9;fill-opacity:1;fill-rule:nonzero;stroke:#6798e9;stroke-width:6.1539917;stroke-linecap:round;stroke-linejoin:round;marker:none;marker-start:none;marker-mid:none;marker-end:none;stroke-miterlimit:0.5;stroke-dasharray:none;stroke-dashoffset:0;stroke-opacity:1;visibility:visible;display:inline;overflow:visible" />
      <path
         d="M 625.66414,67.906699 C 621.09439,67.906699 617.18096,70.234499 615.261,73.578174 C 614.49418,73.159771 613.6402,72.903599 612.73753,72.903599 C 610.00784,72.903599 607.73706,75.0496 607.03498,77.962962 C 605.83664,77.500035 604.4536,77.21342 602.96526,77.21342 C 598.50026,77.21342 594.87531,79.60415 594.87531,82.547617 C 594.87531,85.204615 597.8447,87.390303 601.70354,87.794368 C 601.53059,88.081166 601.39428,88.367772 601.39428,88.668826 C 601.39428,91.487047 609.29765,93.778165 619.03385,93.778165 C 628.77003,93.778165 636.67341,91.487047 636.67341,88.668826 C 636.67341,88.479212 636.54518,88.303441 636.47549,88.119168 C 636.90194,88.222829 637.33163,88.331539 637.79908,88.331539 C 640.40366,88.331539 642.51202,86.600743 642.51202,84.471434 C 642.51202,82.342117 640.40365,80.623817 637.79908,80.623817 C 637.47988,80.623817 637.19753,80.724254 636.89607,80.773716 C 637.15966,79.922308 637.34139,79.049306 637.34139,78.125367 C 637.34139,72.488916 632.11358,67.906699 625.66414,67.906699 z "
         id="path6506"
         style="opacity:1;color:#000000;fill:#386195;fill-opacity:1;fill-rule:nonzero;stroke:#386195;stroke-width:6.15399694;stroke-linecap:round;stroke-linejoin:round;marker:none;marker-start:none;marker-mid:none;marker-end:none;stroke-miterlimit:0.5;stroke-dasharray:none;stroke-dashoffset:0;stroke-opacity:1;visibility:visible;display:inline;overflow:visible" />
    </g>
    <g
       id="g13537"
       transform="translate(0.512303,22.88156)">
      <path
         d="M 245.03509,147.27428 C 235.26983,147.27428 226.90707,152.36394 222.80426,159.67477 C 221.16562,158.75995 219.34071,158.19983 217.41177,158.19983 C 211.57859,158.19983 206.72607,162.89197 205.22579,169.26194 C 202.66501,168.24976 199.70953,167.62311 196.52906,167.62311 C 186.98763,167.62311 179.24135,172.85033 179.24135,179.28612 C 179.24135,185.09553 185.58674,189.87447 193.83281,190.75795 C 193.46323,191.38501 193.17196,192.01167 193.17196,192.66991 C 193.17196,198.83184 210.06096,203.84128 230.86657,203.84128 C 251.67218,203.84128 268.56118,198.83184 268.56117,192.66991 C 268.56117,192.25532 268.28717,191.87102 268.13824,191.46811 C 269.04953,191.69473 269.96776,191.93244 270.96666,191.93244 C 276.53249,191.93244 281.03793,188.14814 281.03793,183.49246 C 281.03793,178.83678 276.53248,175.07979 270.96666,175.07979 C 270.28458,175.07979 269.68118,175.29941 269.03699,175.40756 C 269.60028,173.54599 269.9886,171.6372 269.9886,169.61702 C 269.9886,157.29316 258.81714,147.27428 245.03509,147.27428 z "
         id="path8702"
         style="opacity:1;color:#000000;fill:#ffffff;fill-opacity:1;fill-rule:nonzero;stroke:#6798e9;stroke-width:6.15399885;stroke-linecap:round;stroke-linejoin:round;marker:none;marker-start:none;marker-mid:none;marker-end:none;stroke-miterlimit:0.5;stroke-dasharray:none;stroke-dashoffset:0;stroke-opacity:1;visibility:visible;display:inline;overflow:visible" />
      <path
         d="M 208.3272,221.07782 C 200.07673,228.34781 209.76404,234.54724 213.44753,224.564 L 216.28006,215.30383 L 208.3272,221.07782 z "
         id="path8704"
         sodipodi:nodetypes="cccc"
         style="opacity:1;color:#000000;fill:#6798e9;fill-opacity:1;fill-rule:nonzero;stroke:#6798e9;stroke-width:4;stroke-linecap:butt;stroke-linejoin:miter;marker:none;marker-start:none;marker-mid:none;marker-end:none;stroke-miterlimit:3.20000005;stroke-dasharray:none;stroke-dashoffset:0;stroke-opacity:1;visibility:visible;display:inline;overflow:visible" />
      <path
         d="M 229.20027,221.8509 C 220.9498,229.12089 230.63711,235.32032 234.3206,225.33708 L 237.15313,216.07691 L 229.20027,221.8509 z "
         id="path8706"
         sodipodi:nodetypes="cccc"
         style="opacity:1;color:#000000;fill:#6798e9;fill-opacity:1;fill-rule:nonzero;stroke:#6798e9;stroke-width:4;stroke-linecap:butt;stroke-linejoin:miter;marker:none;marker-start:none;marker-mid:none;marker-end:none;stroke-miterlimit:3.20000005;stroke-dasharray:none;stroke-dashoffset:0;stroke-opacity:1;visibility:visible;display:inline;overflow:visible" />
    </g>
    <g
       id="g13515"
       transform="translate(-4.034267,19.89249)">
      <path
         d="M 310.66382,132.06057 C 308.83679,134.10487 288.45343,113.67749 285.77048,114.68246 C 283.08753,115.68743 279.03265,148.32438 276.19521,148.69411 C 273.35777,149.06384 268.47975,115.6053 265.71437,114.80628 C 262.94898,114.00725 246.93507,134.1478 244.53473,132.6352 C 242.13439,131.12261 250.23445,106.53712 248.89959,103.96463 C 247.56472,101.39214 217.03654,100.18431 216.40777,97.31453 C 215.77901,94.44475 244.07632,86.915154 244.31025,84.072766 C 244.54419,81.230379 225.31197,65.170616 226.41327,62.678968 C 227.51458,60.187321 253.26783,70.856367 255.00756,68.670558 C 256.74728,66.484749 251.61574,38.987069 254.25587,38.16346 C 256.896,37.339852 272.75893,56.648787 275.5774,56.556432 C 278.39587,56.464078 286.88052,32.268747 289.75998,32.834115 C 292.63945,33.399483 291.20327,58.501746 293.43224,60.177765 C 295.66121,61.853784 317.70385,53.894885 319.33899,56.17282 C 320.97413,58.450756 306.69976,80.617845 307.55944,83.24573 C 308.41912,85.873615 334.57127,88.38123 334.21401,91.098204 C 333.85675,93.815177 301.51488,94.973798 300.16717,97.605407 C 298.81947,100.23702 312.49085,130.01627 310.66382,132.06057 z "
         id="path5006"
         inkscape:flatsided="false"
         inkscape:randomized="-0.092"
         inkscape:rounded="0.1"
         sodipodi:arg1="0.79570711"
         sodipodi:arg2="1.144773"
         sodipodi:cx="275.15002"
         sodipodi:cy="88.090233"
         sodipodi:r1="57.019234"
         sodipodi:r2="32.818508"
         sodipodi:sides="9"
         sodipodi:type="star"
         style="opacity:1;color:#000000;fill:#f5ff12;fill-opacity:1;fill-rule:nonzero;stroke:none;stroke-width:0.2;stroke-linecap:butt;stroke-linejoin:miter;marker:none;marker-start:none;marker-mid:none;marker-end:none;stroke-miterlimit:0.5;stroke-dasharray:none;stroke-dashoffset:0;stroke-opacity:1;visibility:visible;display:inline;overflow:visible"
         transform="matrix(0.646039,0,0,0.646039,170.1345,3.99953)" />
      <path
         d="M 194.51692 77.283737 A 39.900909 37.407101 0 1 1  114.7151,77.283737 A 39.900909 37.407101 0 1 1  194.51692 77.283737 z"
         id="path5008"
         sodipodi:cx="154.61601"
         sodipodi:cy="77.283737"
         sodipodi:rx="39.900909"
         sodipodi:ry="37.407101"
         sodipodi:type="arc"
         style="opacity:1;color:#000000;fill:#ffffff;fill-opacity:1;fill-rule:nonzero;stroke:#f5ff12;stroke-width:10.27388287;stroke-linecap:butt;stroke-linejoin:miter;marker:none;marker-start:none;marker-mid:none;marker-end:none;stroke-miterlimit:0.5;stroke-dasharray:none;stroke-dashoffset:0;stroke-opacity:1;visibility:visible;display:inline;overflow:visible"
         transform="matrix(0.633101,0,0,0.566686,249.7362,15.234)" />
      <path
         d="M 110.53125,144.96875 C 100.76599,144.96875 92.38406,150.03292 88.28125,157.34375 C 86.642607,156.42892 84.83519,155.875 82.90625,155.875 C 77.073071,155.875 72.21903,160.56753 70.71875,166.9375 C 68.157973,165.92533 65.18047,165.3125 62,165.3125 C 52.458571,165.3125 44.71875,170.53296 44.71875,176.96875 C 44.718749,182.77816 51.06643,187.55402 59.3125,188.4375 C 58.942922,189.06456 58.65625,189.68551 58.65625,190.34375 C 58.656248,196.50568 75.53814,201.53125 96.34375,201.53125 C 117.14936,201.53125 134.03126,196.50568 134.03125,190.34375 C 134.03125,189.92916 133.77393,189.55916 133.625,189.15625 C 134.53629,189.38287 135.4386,189.625 136.4375,189.625 C 142.00333,189.62501 146.53125,185.84318 146.53125,181.1875 C 146.53125,176.53182 142.00332,172.75 136.4375,172.75 C 135.75542,172.75 135.17544,172.9856 134.53125,173.09375 C 135.09454,171.23218 135.46875,169.33268 135.46875,167.3125 C 135.46875,154.98864 124.3133,144.96875 110.53125,144.96875 z "
         id="path9498"
         inkscape:original="M 110.53125 144.96875 C 100.76599 144.96875 92.384060 150.03292 88.281250 157.34375 C 86.642607 156.42892 84.835190 155.87500 82.906250 155.87500 C 77.073071 155.87500 72.219030 160.56753 70.718750 166.93750 C 68.157973 165.92533 65.180470 165.31250 62.000000 165.31250 C 52.458571 165.31250 44.718750 170.53296 44.718750 176.96875 C 44.718749 182.77816 51.066430 187.55402 59.312500 188.43750 C 58.942922 189.06456 58.656250 189.68551 58.656250 190.34375 C 58.656248 196.50568 75.538140 201.53125 96.343750 201.53125 C 117.14936 201.53125 134.03126 196.50568 134.03125 190.34375 C 134.03125 189.92916 133.77393 189.55916 133.62500 189.15625 C 134.53629 189.38287 135.43860 189.62500 136.43750 189.62500 C 142.00333 189.62501 146.53125 185.84318 146.53125 181.18750 C 146.53125 176.53182 142.00332 172.75000 136.43750 172.75000 C 135.75542 172.75000 135.17544 172.98560 134.53125 173.09375 C 135.09454 171.23218 135.46875 169.33268 135.46875 167.31250 C 135.46875 154.98864 124.31330 144.96875 110.53125 144.96875 z "
         inkscape:radius="0"
         sodipodi:type="inkscape:offset"
         style="opacity:1;color:#000000;fill:#ffffff;fill-opacity:1;fill-rule:nonzero;stroke:#6798e9;stroke-width:6.15399885;stroke-linecap:round;stroke-linejoin:round;marker:none;marker-start:none;marker-mid:none;marker-end:none;stroke-miterlimit:0.5;stroke-dasharray:none;stroke-dashoffset:0;stroke-opacity:1;visibility:visible;display:inline;overflow:visible"
         transform="translate(275.2719,-101.0764)" />
    </g>
    <g
       id="g13542"
       transform="translate(-2.476131,19.30869)">
      <path
         d="M 378.30972,207.23606 C 393.74028,205.8361 404.97429,201.57716 404.97428,196.55163 C 404.97428,196.13704 404.70028,195.75274 404.55135,195.34983 C 405.46265,195.57644 406.38087,195.81416 407.37977,195.81416 C 412.9456,195.81416 417.45104,192.02986 417.45104,187.37418 C 417.45105,182.71851 412.94559,178.96151 407.37977,178.96151 C 406.69769,178.96151 406.09429,179.18113 405.4501,179.28928 C 406.01338,177.42772 406.40171,175.51892 406.40171,173.49874 C 406.40171,161.17487 395.23025,151.156 381.4482,151.156 L 381.44819,151.156 C 371.68294,151.156 363.32018,156.24566 359.21737,163.55649 C 357.57872,162.64167 355.75382,162.08155 353.82488,162.08155 C 347.99171,162.08154 343.13918,166.77369 341.6389,173.14366 C 339.07813,172.13148 336.12264,171.50483 332.94217,171.50483 C 323.40073,171.50483 315.65446,176.73205 315.65446,183.16784 C 315.65446,188.97725 321.99985,193.75619 330.24592,194.63967 C 329.87634,195.26672 329.58507,195.89339 329.58507,196.55163 C 329.58508,200.79568 337.59689,204.49301 349.38204,206.38343"
         id="path8749"
         style="opacity:1;color:#000000;fill:none;fill-opacity:1;fill-rule:nonzero;stroke:#6798e9;stroke-width:6.15399885;stroke-linecap:round;stroke-linejoin:round;marker:none;marker-start:none;marker-mid:none;marker-end:none;stroke-miterlimit:0.5;stroke-dasharray:none;stroke-dashoffset:0;stroke-opacity:1;visibility:visible;display:inline;overflow:visible" />
      <path
         d="M 338.13635,223.9149 C 329.88588,231.18489 339.57319,237.38432 343.25668,227.40108 L 346.08921,218.14091 L 338.13635,223.9149 z "
         id="path8734"
         sodipodi:nodetypes="cccc"
         style="opacity:1;color:#000000;fill:#6798e9;fill-opacity:1;fill-rule:nonzero;stroke:#6798e9;stroke-width:4;stroke-linecap:butt;stroke-linejoin:miter;marker:none;marker-start:none;marker-mid:none;marker-end:none;stroke-miterlimit:3.20000005;stroke-dasharray:none;stroke-dashoffset:0;stroke-opacity:1;visibility:visible;display:inline;overflow:visible" />
      <path
         d="M 367.1849,225.11492 C 358.93443,232.38491 368.62174,238.58434 372.30523,228.6011 L 375.13776,219.34093 L 367.1849,225.11492 z "
         id="path8736"
         sodipodi:nodetypes="cccc"
         style="opacity:1;color:#000000;fill:#6798e9;fill-opacity:1;fill-rule:nonzero;stroke:#6798e9;stroke-width:4;stroke-linecap:butt;stroke-linejoin:miter;marker:none;marker-start:none;marker-mid:none;marker-end:none;stroke-miterlimit:3.20000005;stroke-dasharray:none;stroke-dashoffset:0;stroke-opacity:1;visibility:visible;display:inline;overflow:visible" />
      <path
         d="M 360.42126,209.77148 C 352.17079,217.04147 361.8581,223.2409 365.54159,213.25766 L 368.37412,203.99749 L 360.42126,209.77148 z "
         id="path8738"
         sodipodi:nodetypes="cccc"
         style="opacity:1;color:#000000;fill:#6798e9;fill-opacity:1;fill-rule:nonzero;stroke:#6798e9;stroke-width:4;stroke-linecap:butt;stroke-linejoin:miter;marker:none;marker-start:none;marker-mid:none;marker-end:none;stroke-miterlimit:3.20000005;stroke-dasharray:none;stroke-dashoffset:0;stroke-opacity:1;visibility:visible;display:inline;overflow:visible" />
      <path
         d="M 378.30972,207.23606 C 393.74028,205.8361 404.97429,201.57716 404.97428,196.55163 C 404.97428,196.13704 404.70028,195.75274 404.55135,195.34983 C 405.46265,195.57644 406.38087,195.81416 407.37977,195.81416 C 412.9456,195.81416 417.45104,192.02986 417.45104,187.37418 C 417.45105,182.71851 412.94559,178.96151 407.37977,178.96151 C 406.69769,178.96151 406.09429,179.18113 405.4501,179.28928 C 406.01338,177.42772 406.40171,175.51892 406.40171,173.49874 C 406.40171,161.17487 395.23025,151.156 381.4482,151.156 L 381.44819,151.156 C 371.68294,151.156 363.32018,156.24566 359.21737,163.55649 C 357.57872,162.64167 355.75382,162.08155 353.82488,162.08155 C 347.99171,162.08154 343.13918,166.77369 341.6389,173.14366 C 339.07813,172.13148 336.12264,171.50483 332.94217,171.50483 C 323.40073,171.50483 315.65446,176.73205 315.65446,183.16784 C 315.65446,188.97725 321.99985,193.75619 330.24592,194.63967 C 329.87634,195.26672 329.58507,195.89339 329.58507,196.55163 C 329.58508,200.79568 337.59689,204.49301 349.38204,206.38343"
         id="path10281"
         style="opacity:1;color:#000000;fill:none;fill-opacity:1;fill-rule:nonzero;stroke:#6798e9;stroke-width:6.15399885;stroke-linecap:round;stroke-linejoin:round;marker:none;marker-start:none;marker-mid:none;marker-end:none;stroke-miterlimit:0.5;stroke-dasharray:none;stroke-dashoffset:0;stroke-opacity:1;visibility:visible;display:inline;overflow:visible" />
      <path
         d="M 338.13635,223.9149 C 329.88588,231.18489 339.57319,237.38432 343.25668,227.40108 L 346.08921,218.14091 L 338.13635,223.9149 z "
         id="path10283"
         sodipodi:nodetypes="cccc"
         style="opacity:1;color:#000000;fill:#6798e9;fill-opacity:1;fill-rule:nonzero;stroke:#6798e9;stroke-width:4;stroke-linecap:butt;stroke-linejoin:miter;marker:none;marker-start:none;marker-mid:none;marker-end:none;stroke-miterlimit:3.20000005;stroke-dasharray:none;stroke-dashoffset:0;stroke-opacity:1;visibility:visible;display:inline;overflow:visible" />
      <path
         d="M 367.1849,225.11492 C 358.93443,232.38491 368.62174,238.58434 372.30523,228.6011 L 375.13776,219.34093 L 367.1849,225.11492 z "
         id="path10285"
         sodipodi:nodetypes="cccc"
         style="opacity:1;color:#000000;fill:#6798e9;fill-opacity:1;fill-rule:nonzero;stroke:#6798e9;stroke-width:4;stroke-linecap:butt;stroke-linejoin:miter;marker:none;marker-start:none;marker-mid:none;marker-end:none;stroke-miterlimit:3.20000005;stroke-dasharray:none;stroke-dashoffset:0;stroke-opacity:1;visibility:visible;display:inline;overflow:visible" />
      <path
         d="M 360.42126,209.77148 C 352.17079,217.04147 361.8581,223.2409 365.54159,213.25766 L 368.37412,203.99749 L 360.42126,209.77148 z "
         id="path10287"
         sodipodi:nodetypes="cccc"
         style="opacity:1;color:#000000;fill:#6798e9;fill-opacity:1;fill-rule:nonzero;stroke:#6798e9;stroke-width:4;stroke-linecap:butt;stroke-linejoin:miter;marker:none;marker-start:none;marker-mid:none;marker-end:none;stroke-miterlimit:3.20000005;stroke-dasharray:none;stroke-dashoffset:0;stroke-opacity:1;visibility:visible;display:inline;overflow:visible" />
    </g>
    <g
       id="g13552"
       transform="translate(-0.952556,20.52387)">
      <path
         d="M 510.21086,208.66977 C 525.64142,207.26981 536.87543,203.01087 536.87542,197.98534 C 536.87542,197.57075 536.60142,197.18645 536.45249,196.78354 C 537.36379,197.01015 538.28201,197.24787 539.28091,197.24787 C 544.84674,197.24787 549.35218,193.46357 549.35218,188.80789 C 549.35219,184.15222 544.84673,180.39522 539.28091,180.39522 C 538.59883,180.39522 537.99543,180.61484 537.35124,180.72299 C 537.91452,178.86143 538.30285,176.95263 538.30285,174.93245 C 538.30285,162.60858 527.13139,152.58971 513.34934,152.58971 L 513.34933,152.58971 C 503.58408,152.58971 495.22132,157.67937 491.11851,164.9902 C 489.47986,164.07538 487.65496,163.51526 485.72602,163.51526 C 479.89285,163.51525 475.04032,168.2074 473.54004,174.57737 C 470.97927,173.56519 468.02378,172.93854 464.84331,172.93854 C 455.30187,172.93854 447.5556,178.16576 447.5556,184.60155 C 447.5556,190.41096 453.90099,195.1899 462.14706,196.07338 C 461.77748,196.70043 461.48621,197.3271 461.48621,197.98534 C 461.48622,202.22939 469.49803,205.92672 481.28318,207.81714"
         id="path10289"
         style="opacity:1;color:#000000;fill:none;fill-opacity:1;fill-rule:nonzero;stroke:#6798e9;stroke-width:6.15399885;stroke-linecap:round;stroke-linejoin:round;marker:none;marker-start:none;marker-mid:none;marker-end:none;stroke-miterlimit:0.5;stroke-dasharray:none;stroke-dashoffset:0;stroke-opacity:1;visibility:visible;display:inline;overflow:visible" />
      <path
         d="M 470.03749,225.34861 C 461.78702,232.6186 471.47433,238.81803 475.15782,228.83479 L 477.99035,219.57462 L 470.03749,225.34861 z "
         id="path10291"
         sodipodi:nodetypes="cccc"
         style="opacity:1;color:#000000;fill:#6798e9;fill-opacity:1;fill-rule:nonzero;stroke:#6798e9;stroke-width:4;stroke-linecap:butt;stroke-linejoin:miter;marker:none;marker-start:none;marker-mid:none;marker-end:none;stroke-miterlimit:3.20000005;stroke-dasharray:none;stroke-dashoffset:0;stroke-opacity:1;visibility:visible;display:inline;overflow:visible" />
      <path
         d="M 499.08604,226.54863 C 490.83557,233.81862 500.52288,240.01805 504.20637,230.03481 L 507.0389,220.77464 L 499.08604,226.54863 z "
         id="path10293"
         sodipodi:nodetypes="cccc"
         style="opacity:1;color:#000000;fill:#6798e9;fill-opacity:1;fill-rule:nonzero;stroke:#6798e9;stroke-width:4;stroke-linecap:butt;stroke-linejoin:miter;marker:none;marker-start:none;marker-mid:none;marker-end:none;stroke-miterlimit:3.20000005;stroke-dasharray:none;stroke-dashoffset:0;stroke-opacity:1;visibility:visible;display:inline;overflow:visible" />
      <path
         d="M 492.3224,211.20519 C 484.07193,218.47518 493.75924,224.67461 497.44273,214.69137 L 500.27526,205.4312 L 492.3224,211.20519 z "
         id="path10295"
         sodipodi:nodetypes="cccc"
         style="opacity:1;color:#000000;fill:#6798e9;fill-opacity:1;fill-rule:nonzero;stroke:#6798e9;stroke-width:4;stroke-linecap:butt;stroke-linejoin:miter;marker:none;marker-start:none;marker-mid:none;marker-end:none;stroke-miterlimit:3.20000005;stroke-dasharray:none;stroke-dashoffset:0;stroke-opacity:1;visibility:visible;display:inline;overflow:visible" />
      <path
         d="M 510.21086,208.66977 C 525.64142,207.26981 536.87543,203.01087 536.87542,197.98534 C 536.87542,197.57075 536.60142,197.18645 536.45249,196.78354 C 537.36379,197.01015 538.28201,197.24787 539.28091,197.24787 C 544.84674,197.24787 549.35218,193.46357 549.35218,188.80789 C 549.35219,184.15222 544.84673,180.39522 539.28091,180.39522 C 538.59883,180.39522 537.99543,180.61484 537.35124,180.72299 C 537.91452,178.86143 538.30285,176.95263 538.30285,174.93245 C 538.30285,162.60858 527.13139,152.58971 513.34934,152.58971 L 513.34933,152.58971 C 503.58408,152.58971 495.22132,157.67937 491.11851,164.9902 C 489.47986,164.07538 487.65496,163.51526 485.72602,163.51526 C 479.89285,163.51525 475.04032,168.2074 473.54004,174.57737 C 470.97927,173.56519 468.02378,172.93854 464.84331,172.93854 C 455.30187,172.93854 447.5556,178.16576 447.5556,184.60155 C 447.5556,190.41096 453.90099,195.1899 462.14706,196.07338 C 461.77748,196.70043 461.48621,197.3271 461.48621,197.98534 C 461.48622,202.22939 469.49803,205.92672 481.28318,207.81714"
         id="path10297"
         style="opacity:1;color:#000000;fill:none;fill-opacity:1;fill-rule:nonzero;stroke:#6798e9;stroke-width:6.15399885;stroke-linecap:round;stroke-linejoin:round;marker:none;marker-start:none;marker-mid:none;marker-end:none;stroke-miterlimit:0.5;stroke-dasharray:none;stroke-dashoffset:0;stroke-opacity:1;visibility:visible;display:inline;overflow:visible" />
      <path
         d="M 470.03749,225.34861 C 461.78702,232.6186 471.47433,238.81803 475.15782,228.83479 L 477.99035,219.57462 L 470.03749,225.34861 z "
         id="path10299"
         sodipodi:nodetypes="cccc"
         style="opacity:1;color:#000000;fill:#6798e9;fill-opacity:1;fill-rule:nonzero;stroke:#6798e9;stroke-width:4;stroke-linecap:butt;stroke-linejoin:miter;marker:none;marker-start:none;marker-mid:none;marker-end:none;stroke-miterlimit:3.20000005;stroke-dasharray:none;stroke-dashoffset:0;stroke-opacity:1;visibility:visible;display:inline;overflow:visible" />
      <path
         d="M 499.08604,226.54863 C 490.83557,233.81862 500.52288,240.01805 504.20637,230.03481 L 507.0389,220.77464 L 499.08604,226.54863 z "
         id="path10301"
         sodipodi:nodetypes="cccc"
         style="opacity:1;color:#000000;fill:#6798e9;fill-opacity:1;fill-rule:nonzero;stroke:#6798e9;stroke-width:4;stroke-linecap:butt;stroke-linejoin:miter;marker:none;marker-start:none;marker-mid:none;marker-end:none;stroke-miterlimit:3.20000005;stroke-dasharray:none;stroke-dashoffset:0;stroke-opacity:1;visibility:visible;display:inline;overflow:visible" />
      <path
         d="M 492.3224,211.20519 C 484.07193,218.47518 493.75924,224.67461 497.44273,214.69137 L 500.27526,205.4312 L 492.3224,211.20519 z "
         id="path10303"
         sodipodi:nodetypes="cccc"
         style="opacity:1;color:#000000;fill:#6798e9;fill-opacity:1;fill-rule:nonzero;stroke:#6798e9;stroke-width:4;stroke-linecap:butt;stroke-linejoin:miter;marker:none;marker-start:none;marker-mid:none;marker-end:none;stroke-miterlimit:3.20000005;stroke-dasharray:none;stroke-dashoffset:0;stroke-opacity:1;visibility:visible;display:inline;overflow:visible" />
      <path
         d="M 511.41927,157.9524 L 491.37686,170.66107 L 511.17148,175.02709 L 492.87547,188.67093 L 485.48863,186.36696 L 490.72786,199.51813 L 511.54907,193.78036 L 502.75802,191.38199 L 526.62956,171.78503 L 504.80829,168.23321 L 525.88026,154.99058 L 513.86041,153.00227 L 526.95184,144.58588 L 522.14258,144.46493 L 501.8273,156.01129 L 511.41927,157.9524 z "
         id="path10305"
         sodipodi:nodetypes="cccccccccccccccc"
         style="opacity:1;color:#000000;fill:#f5ff12;fill-opacity:1;fill-rule:nonzero;stroke:#f5ff12;stroke-width:0.5;stroke-linecap:round;stroke-linejoin:miter;marker:none;marker-start:none;marker-mid:none;marker-end:none;stroke-miterlimit:0.5;stroke-dasharray:none;stroke-dashoffset:0;stroke-opacity:1;visibility:visible;display:inline;overflow:visible" />
    </g>
    <g
       id="g13563"
       transform="translate(1.602238,16.73996)">
      <path
         d="M 679.98743,181.62968 C 678.69188,181.64281 680.50154,181.15164 677.19906,181.22152 C 675.70379,181.25316 673.44421,181.85606 671.5459,182.48785 C 669.59864,183.13595 666.24487,184.41603 664.0006,184.98266 C 659.40302,186.14345 661.93281,185.59288 655.0684,186.67793 C 647.95321,187.80262 646.34952,187.9482 644.76496,187.87611 C 643.24876,187.80713 639.49772,188.27064 635.97203,187.79831 C 632.81221,187.37499 631.60081,187.69187 630.87033,188.19693 C 630.13985,188.70197 629.71156,189.61735 629.75351,190.58395 C 629.79546,191.55053 630.30093,192.41417 631.07165,192.83602 C 631.79018,193.26994 632.8867,193.94374 634.71001,194.55594 C 639.35681,196.11614 646.19439,197.18956 653.7817,197.18956 C 661.36901,197.18956 668.20659,196.11614 672.85338,194.55594 C 674.79376,193.90444 676.01981,193.18154 676.77711,192.70165 C 677.42574,192.29709 677.8667,191.56953 677.96612,190.73987 C 678.1793,188.90671 679.2895,187.39454 680.84352,186.8163 C 682.02266,186.45653 682.75911,185.13303 682.53515,183.77618 C 682.31119,182.41932 681.20796,181.54838 679.98743,181.62968 z "
         id="path11037"
         sodipodi:nodetypes="cszsssssscssssscsc"
         style="color:#000000;fill:#ffffff;fill-opacity:1;fill-rule:nonzero;stroke:none;stroke-width:6.15399885;stroke-linecap:round;stroke-linejoin:round;marker:none;marker-start:none;marker-mid:none;marker-end:none;stroke-miterlimit:0.5;stroke-dashoffset:0;stroke-opacity:1;visibility:visible;display:inline;overflow:visible" />
      <g
         id="g11039"
         transform="matrix(0.916143,0,0,0.916143,324.664,36.8816)">
        <path
           d="M 333.02896,123.38528 C 323.2637,123.38528 314.90094,128.47494 310.79813,135.78577 C 309.15949,134.87095 307.33458,134.31083 305.40564,134.31083 C 299.57246,134.31083 294.71994,139.00297 293.21966,145.37294 C 290.65888,144.36076 287.7034,143.73411 284.52293,143.73411 C 274.9815,143.73411 267.23522,148.96133 267.23522,155.39712 C 267.23522,161.20653 273.58061,165.98547 281.82668,166.86895 C 281.4571,167.49601 281.16583,168.12267 281.16583,168.78091 C 281.16583,174.94284 298.05483,179.95228 318.86044,179.95228 C 339.66605,179.95228 356.55505,174.94284 356.55504,168.78091 C 356.55504,168.36632 356.28104,167.98202 356.13211,167.57911 C 357.0434,167.80573 357.96163,168.04344 358.96053,168.04344 C 364.52636,168.04344 369.0318,164.25914 369.0318,159.60346 C 369.0318,154.94778 364.52635,151.19079 358.96053,151.19079 C 358.27845,151.19079 357.67505,151.41041 357.03086,151.51856 C 357.59415,149.65699 357.98247,147.7482 357.98247,145.72802 C 357.98247,133.40416 346.81101,123.38528 333.02896,123.38528 z "
           id="path11041"
           style="opacity:1;color:#000000;fill:#ffffff;fill-opacity:1;fill-rule:nonzero;stroke:#6798e9;stroke-width:6.71729422;stroke-linecap:round;stroke-linejoin:round;marker:none;marker-start:none;marker-mid:none;marker-end:none;stroke-miterlimit:0.5;stroke-dasharray:none;stroke-dashoffset:0;stroke-opacity:1;visibility:visible;display:inline;overflow:visible" />
        <path
           d="M 364.83566,125.17254 C 355.87911,125.17254 348.20891,130.27287 344.44586,137.59901 C 342.94293,136.68228 341.26914,136.12099 339.49995,136.12099 C 334.14984,136.12099 329.69917,140.82296 328.32313,147.20629 C 325.97443,146.19198 323.26369,145.56401 320.34661,145.56401 C 311.59535,145.56401 304.49058,150.80221 304.49058,157.25146 C 304.49058,163.07306 310.31047,167.86202 317.87366,168.74734 C 317.5347,169.37572 317.26755,170.00369 317.26755,170.66331 C 317.26755,176.83815 332.75788,181.8581 351.8405,181.8581 C 370.9231,181.8581 386.41347,176.83815 386.41347,170.66331 C 386.41347,170.24785 386.16214,169.86273 386.02554,169.459 C 386.86138,169.68608 387.70356,169.9243 388.61973,169.9243 C 393.72465,169.9243 397.85695,166.13206 397.85695,161.46663 C 397.85695,156.8012 393.72462,153.03632 388.61973,153.03632 C 387.99414,153.03632 387.44073,153.25639 386.84987,153.36478 C 387.3665,151.49931 387.72268,149.58652 387.72268,147.5621 C 387.72268,135.21242 377.47636,125.17254 364.83566,125.17254 z "
           id="path11043"
           style="opacity:1;color:#000000;fill:#6798e9;fill-opacity:1;fill-rule:nonzero;stroke:#6798e9;stroke-width:6.71728277;stroke-linecap:round;stroke-linejoin:round;marker:none;marker-start:none;marker-mid:none;marker-end:none;stroke-miterlimit:0.5;stroke-dasharray:none;stroke-dashoffset:0;stroke-opacity:1;visibility:visible;display:inline;overflow:visible" />
        <path
           d="M 328.55148,163.26629 C 323.56345,163.26629 319.29181,165.80716 317.19611,169.45689 C 316.35911,169.00019 315.42696,168.72057 314.44167,168.72057 C 311.46212,168.72057 308.98349,171.063 308.21714,174.24303 C 306.90912,173.73773 305.39948,173.42488 303.77491,173.42488 C 298.90122,173.42488 294.94447,176.03444 294.94447,179.24733 C 294.94447,182.14753 298.18565,184.53328 302.3977,184.97433 C 302.20892,185.28738 302.06014,185.60022 302.06014,185.92883 C 302.06014,189.00501 310.68692,191.50584 321.3143,191.50584 C 331.94166,191.50584 340.56846,189.00501 340.56846,185.92883 C 340.56846,185.72186 340.42849,185.53 340.35242,185.32886 C 340.81791,185.44201 341.28693,185.56067 341.79716,185.56067 C 344.64015,185.56067 346.94149,183.67145 346.94149,181.34724 C 346.94149,179.02302 344.64014,177.14744 341.79716,177.14744 C 341.44875,177.14744 341.14055,177.25707 340.8115,177.31106 C 341.09922,176.38172 341.29758,175.42881 341.29758,174.4203 C 341.29758,168.26793 335.59126,163.26629 328.55148,163.26629 z "
           id="path11045"
           style="opacity:1;color:#000000;fill:#386195;fill-opacity:1;fill-rule:nonzero;stroke:#386195;stroke-width:6.71728849;stroke-linecap:round;stroke-linejoin:round;marker:none;marker-start:none;marker-mid:none;marker-end:none;stroke-miterlimit:0.5;stroke-dasharray:none;stroke-dashoffset:0;stroke-opacity:1;visibility:visible;display:inline;overflow:visible" />
      </g>
      <path
         d="M 633.67414,165.36179 L 613.63173,178.07046 L 633.42635,182.43648 L 615.13034,196.08032 L 607.7435,193.77635 L 612.98273,206.92752 L 633.80394,201.18975 L 625.01289,198.79138 L 648.88443,179.19442 L 627.06316,175.6426 L 648.13513,162.39997 L 636.11528,160.41166 L 649.20671,151.99527 L 644.39745,151.87432 L 624.08217,163.42068 L 633.67414,165.36179 z "
         id="path11047"
         sodipodi:nodetypes="cccccccccccccccc"
         style="opacity:1;color:#000000;fill:#f5ff12;fill-opacity:1;fill-rule:nonzero;stroke:#f5ff12;stroke-width:0.5;stroke-linecap:round;stroke-linejoin:miter;marker:none;marker-start:none;marker-mid:none;marker-end:none;stroke-miterlimit:0.5;stroke-dasharray:none;stroke-dashoffset:0;stroke-opacity:1;visibility:visible;display:inline;overflow:visible" />
      <g
         id="g11065">
        <path
           d="M 595.99705,230.2882 C 587.74658,237.55819 597.43389,243.75762 601.11738,233.77438 L 603.94991,224.51421 L 595.99705,230.2882 z "
           id="path11049"
           sodipodi:nodetypes="cccc"
           style="opacity:1;color:#000000;fill:#6798e9;fill-opacity:1;fill-rule:nonzero;stroke:#6798e9;stroke-width:4;stroke-linecap:butt;stroke-linejoin:miter;marker:none;marker-start:none;marker-mid:none;marker-end:none;stroke-miterlimit:3.20000005;stroke-dasharray:none;stroke-dashoffset:0;stroke-opacity:1;visibility:visible;display:inline;overflow:visible" />
        <path
           d="M 625.0456,231.48822 C 616.79513,238.75821 626.48244,244.95764 630.16593,234.9744 L 632.99846,225.71423 L 625.0456,231.48822 z "
           id="path11051"
           sodipodi:nodetypes="cccc"
           style="opacity:1;color:#000000;fill:#6798e9;fill-opacity:1;fill-rule:nonzero;stroke:#6798e9;stroke-width:4;stroke-linecap:butt;stroke-linejoin:miter;marker:none;marker-start:none;marker-mid:none;marker-end:none;stroke-miterlimit:3.20000005;stroke-dasharray:none;stroke-dashoffset:0;stroke-opacity:1;visibility:visible;display:inline;overflow:visible" />
        <path
           d="M 618.28196,216.14478 C 610.03149,223.41477 619.7188,229.6142 623.40229,219.63096 L 626.23482,210.37079 L 618.28196,216.14478 z "
           id="path11053"
           sodipodi:nodetypes="cccc"
           style="opacity:1;color:#000000;fill:#6798e9;fill-opacity:1;fill-rule:nonzero;stroke:#6798e9;stroke-width:4;stroke-linecap:butt;stroke-linejoin:miter;marker:none;marker-start:none;marker-mid:none;marker-end:none;stroke-miterlimit:3.20000005;stroke-dasharray:none;stroke-dashoffset:0;stroke-opacity:1;visibility:visible;display:inline;overflow:visible" />
        <path
           d="M 595.99705,230.2882 C 587.74658,237.55819 597.43389,243.75762 601.11738,233.77438 L 603.94991,224.51421 L 595.99705,230.2882 z "
           id="path11055"
           sodipodi:nodetypes="cccc"
           style="opacity:1;color:#000000;fill:#6798e9;fill-opacity:1;fill-rule:nonzero;stroke:#6798e9;stroke-width:4;stroke-linecap:butt;stroke-linejoin:miter;marker:none;marker-start:none;marker-mid:none;marker-end:none;stroke-miterlimit:3.20000005;stroke-dasharray:none;stroke-dashoffset:0;stroke-opacity:1;visibility:visible;display:inline;overflow:visible" />
        <path
           d="M 625.0456,231.48822 C 616.79513,238.75821 626.48244,244.95764 630.16593,234.9744 L 632.99846,225.71423 L 625.0456,231.48822 z "
           id="path11057"
           sodipodi:nodetypes="cccc"
           style="opacity:1;color:#000000;fill:#6798e9;fill-opacity:1;fill-rule:nonzero;stroke:#6798e9;stroke-width:4;stroke-linecap:butt;stroke-linejoin:miter;marker:none;marker-start:none;marker-mid:none;marker-end:none;stroke-miterlimit:3.20000005;stroke-dasharray:none;stroke-dashoffset:0;stroke-opacity:1;visibility:visible;display:inline;overflow:visible" />
        <path
           d="M 618.28196,216.14478 C 610.03149,223.41477 619.7188,229.6142 623.40229,219.63096 L 626.23482,210.37079 L 618.28196,216.14478 z "
           id="path11059"
           sodipodi:nodetypes="cccc"
           style="opacity:1;color:#000000;fill:#6798e9;fill-opacity:1;fill-rule:nonzero;stroke:#6798e9;stroke-width:4;stroke-linecap:butt;stroke-linejoin:miter;marker:none;marker-start:none;marker-mid:none;marker-end:none;stroke-miterlimit:3.20000005;stroke-dasharray:none;stroke-dashoffset:0;stroke-opacity:1;visibility:visible;display:inline;overflow:visible" />
      </g>
    </g>
    <g
       id="g13578"
       transform="translate(9.613425,44.54122)">
      <path
         d="M 110.21401,307.58493 C 118.7577,305.53107 124.22298,302.39296 124.22298,298.88695 C 124.22298,298.47235 123.96566,298.10236 123.81673,297.69945 C 124.72802,297.92606 125.63033,298.1682 126.62923,298.1682 C 132.19506,298.1682 136.72298,294.38638 136.72298,289.7307 C 136.72298,285.07501 132.19505,281.2932 126.62923,281.2932 C 125.94715,281.29319 125.36717,281.5288 124.72298,281.63695 C 125.28627,279.77537 125.66048,277.87588 125.66048,275.8557 C 125.66048,263.53183 114.50503,253.51195 100.72298,253.51195 L 100.72298,253.51195 C 90.957717,253.51195 82.575787,258.57612 78.472977,265.88695 C 76.834334,264.97211 75.026917,264.4182 73.097977,264.4182 C 67.264798,264.41819 62.410757,269.11073 60.910477,275.4807 C 58.3497,274.46852 55.372197,273.8557 52.191727,273.8557 C 42.650298,273.85569 34.910477,279.07616 34.910477,285.51195 C 34.910476,291.32135 41.258157,296.09722 49.504227,296.9807 C 49.134649,297.60775 48.847977,298.22871 48.847977,298.88695 C 48.847976,301.74808 52.487665,304.36422 58.469837,306.34602"
         id="path11886"
         style="opacity:1;color:#000000;fill:none;fill-opacity:1;fill-rule:nonzero;stroke:#6798e9;stroke-width:6.15399885;stroke-linecap:round;stroke-linejoin:round;marker:none;marker-start:none;marker-mid:none;marker-end:none;stroke-miterlimit:0.5;stroke-dasharray:none;stroke-dashoffset:0;stroke-opacity:1;visibility:visible;display:inline;overflow:visible" />
      <path
         d="M 110.09539,307.61333 C 110.135,307.60388 110.17454,307.59442 110.21401,307.58493"
         id="path11884"
         style="opacity:1;color:#000000;fill:none;fill-opacity:1;fill-rule:nonzero;stroke:#6798e9;stroke-width:6.15399885;stroke-linecap:round;stroke-linejoin:round;marker:none;marker-start:none;marker-mid:none;marker-end:none;stroke-miterlimit:0.5;stroke-dasharray:none;stroke-dashoffset:0;stroke-opacity:1;visibility:visible;display:inline;overflow:visible" />
      <path
         d="M 58.469837,306.34602 C 58.512114,306.36003 58.554507,306.374 58.597016,306.38795"
         id="path11073"
         style="opacity:1;color:#000000;fill:none;fill-opacity:1;fill-rule:nonzero;stroke:#6798e9;stroke-width:6.15399885;stroke-linecap:round;stroke-linejoin:round;marker:none;marker-start:none;marker-mid:none;marker-end:none;stroke-miterlimit:0.5;stroke-dasharray:none;stroke-dashoffset:0;stroke-opacity:1;visibility:visible;display:inline;overflow:visible" />
      <path
         d="M 138.99229,349.22474 C 139.64597,346.98532 155.58967,352.67266 156.87462,350.72555 C 158.14929,348.79403 146.46512,336.54365 148.2955,335.12756 C 150.14064,333.70005 159.69642,347.67267 161.88045,346.85271 C 164.04701,346.0393 161.79491,329.26075 164.10807,329.19098 C 166.43988,329.12064 165.95778,346.04148 168.20665,346.66186 C 170.43754,347.27727 178.47774,332.37939 180.39014,333.68258 C 182.31796,334.99629 171.98211,348.40216 173.43684,350.22591 C 174.87993,352.03507 190.14134,344.70834 190.92251,346.88673 C 191.70997,349.08268 175.46832,353.853 175.57325,356.18351 C 175.67734,358.49539 192.33062,361.53837 191.68217,363.75988 C 191.0285,365.9993 175.0848,360.31196 173.79985,362.25906 C 172.52517,364.19059 184.20935,376.44097 182.37897,377.85706 C 180.53383,379.28457 170.97805,365.31195 168.79402,366.13191 C 166.62746,366.94531 168.87956,383.72387 166.5664,383.79364 C 164.23459,383.86398 164.71669,366.94314 162.46782,366.32276 C 160.23693,365.70735 152.19673,380.60523 150.28433,379.30203 C 148.35651,377.98833 158.69236,364.58246 157.23763,362.75871 C 155.79454,360.94955 140.53313,368.27628 139.75196,366.09789 C 138.9645,363.90194 155.20615,359.13162 155.10122,356.80111 C 154.99713,354.48923 138.34385,351.44625 138.99229,349.22474 z "
         id="path11873"
         inkscape:flatsided="false"
         inkscape:randomized="0"
         inkscape:rounded="0.13"
         sodipodi:arg1="-2.8724252"
         sodipodi:arg2="-2.5434327"
         sodipodi:cx="165.33723"
         sodipodi:cy="356.49231"
         sodipodi:r1="27.328985"
         sodipodi:r2="10.240669"
         sodipodi:sides="10"
         sodipodi:type="star"
         style="opacity:1;color:#000000;fill:#9e9e9e;fill-opacity:1;fill-rule:nonzero;stroke:#a6a6a6;stroke-width:0.28064299;stroke-linecap:round;stroke-linejoin:miter;marker:none;marker-start:none;marker-mid:none;marker-end:none;stroke-miterlimit:0.5;stroke-dasharray:none;stroke-dashoffset:0;stroke-opacity:1;visibility:visible;display:inline;overflow:visible"
         transform="matrix(0.477208,0,0,0.477208,-3.235909,128.0036)" />
      <path
         d="M 96.125881,297.20383 C 87.875403,304.47382 97.562714,310.67325 101.24621,300.69001 L 104.07873,291.42984 L 96.125881,297.20383 z "
         id="path11888"
         sodipodi:nodetypes="cccc"
         style="opacity:1;color:#000000;fill:#6798e9;fill-opacity:1;fill-rule:nonzero;stroke:#6798e9;stroke-width:4;stroke-linecap:butt;stroke-linejoin:miter;marker:none;marker-start:none;marker-mid:none;marker-end:none;stroke-miterlimit:3.20000005;stroke-dasharray:none;stroke-dashoffset:0;stroke-opacity:1;visibility:visible;display:inline;overflow:visible" />
      <path
         d="M 62.967591,322.64033 C 54.717113,329.91032 64.404424,336.10975 68.08792,326.12651 L 70.92044,316.86634 L 62.967591,322.64033 z "
         id="path11890"
         sodipodi:nodetypes="cccc"
         style="opacity:1;color:#000000;fill:#6798e9;fill-opacity:1;fill-rule:nonzero;stroke:#6798e9;stroke-width:4;stroke-linecap:butt;stroke-linejoin:miter;marker:none;marker-start:none;marker-mid:none;marker-end:none;stroke-miterlimit:3.20000005;stroke-dasharray:none;stroke-dashoffset:0;stroke-opacity:1;visibility:visible;display:inline;overflow:visible" />
      <path
         d="M 138.99229,349.22474 C 139.64597,346.98532 155.58967,352.67266 156.87462,350.72555 C 158.14929,348.79403 146.46512,336.54365 148.2955,335.12756 C 150.14064,333.70005 159.69642,347.67267 161.88045,346.85271 C 164.04701,346.0393 161.79491,329.26075 164.10807,329.19098 C 166.43988,329.12064 165.95778,346.04148 168.20665,346.66186 C 170.43754,347.27727 178.47774,332.37939 180.39014,333.68258 C 182.31796,334.99629 171.98211,348.40216 173.43684,350.22591 C 174.87993,352.03507 190.14134,344.70834 190.92251,346.88673 C 191.70997,349.08268 175.46832,353.853 175.57325,356.18351 C 175.67734,358.49539 192.33062,361.53837 191.68217,363.75988 C 191.0285,365.9993 175.0848,360.31196 173.79985,362.25906 C 172.52517,364.19059 184.20935,376.44097 182.37897,377.85706 C 180.53383,379.28457 170.97805,365.31195 168.79402,366.13191 C 166.62746,366.94531 168.87956,383.72387 166.5664,383.79364 C 164.23459,383.86398 164.71669,366.94314 162.46782,366.32276 C 160.23693,365.70735 152.19673,380.60523 150.28433,379.30203 C 148.35651,377.98833 158.69236,364.58246 157.23763,362.75871 C 155.79454,360.94955 140.53313,368.27628 139.75196,366.09789 C 138.9645,363.90194 155.20615,359.13162 155.10122,356.80111 C 154.99713,354.48923 138.34385,351.44625 138.99229,349.22474 z "
         id="path11894"
         inkscape:flatsided="false"
         inkscape:randomized="0"
         inkscape:rounded="0.13"
         sodipodi:arg1="-2.8724252"
         sodipodi:arg2="-2.5434327"
         sodipodi:cx="165.33723"
         sodipodi:cy="356.49231"
         sodipodi:r1="27.328985"
         sodipodi:r2="10.240669"
         sodipodi:sides="10"
         sodipodi:type="star"
         style="opacity:1;color:#000000;fill:#9e9e9e;fill-opacity:1;fill-rule:nonzero;stroke:#a6a6a6;stroke-width:0.28064299;stroke-linecap:round;stroke-linejoin:miter;marker:none;marker-start:none;marker-mid:none;marker-end:none;stroke-miterlimit:0.5;stroke-dasharray:none;stroke-dashoffset:0;stroke-opacity:1;visibility:visible;display:inline;overflow:visible"
         transform="matrix(0.477208,0,0,0.477208,12.6619,152.9859)" />
    </g>
    <g
       id="g13587"
       transform="translate(7.073813,45.49854)">
      <path
         d="M 248.29785,304.85959 C 256.84154,302.80573 262.30682,299.66762 262.30682,296.16161 C 262.30682,295.74701 262.0495,295.37702 261.90057,294.97411 C 262.81186,295.20072 263.71417,295.44286 264.71307,295.44286 C 270.2789,295.44286 274.80682,291.66104 274.80682,287.00536 C 274.80682,282.34967 270.27889,278.56786 264.71307,278.56786 C 264.03099,278.56785 263.45101,278.80346 262.80682,278.91161 C 263.37011,277.05003 263.74432,275.15054 263.74432,273.13036 C 263.74432,260.80649 252.58887,250.78661 238.80682,250.78661 L 238.80682,250.78661 C 229.04156,250.78661 220.65963,255.85078 216.55682,263.16161 C 214.91817,262.24677 213.11076,261.69286 211.18182,261.69286 C 205.34864,261.69285 200.4946,266.38539 198.99432,272.75536 C 196.43354,271.74318 193.45604,271.13036 190.27557,271.13036 C 180.73414,271.13035 172.99432,276.35082 172.99432,282.78661 C 172.99431,288.59601 179.342,293.37188 187.58807,294.25536 C 187.21849,294.88241 186.93182,295.50337 186.93182,296.16161 C 186.93181,299.02274 190.5715,301.63888 196.55368,303.62068 M 248.17923,304.88799 C 248.21884,304.87854 240.28546,305.86569 240.32493,305.8562 M 196.55368,303.62068 C 196.59595,303.63469 201.28922,304.64527 201.33172,304.65922"
         id="path11896"
         style="color:#000000;fill:none;fill-opacity:1;fill-rule:nonzero;stroke:#6798e9;stroke-width:6.15399885;stroke-linecap:round;stroke-linejoin:round;marker:none;marker-start:none;marker-mid:none;marker-end:none;stroke-miterlimit:0.5;stroke-dashoffset:0;stroke-opacity:1;visibility:visible;display:inline;overflow:visible" />
      <path
         d="M 138.99229,349.22474 C 139.64597,346.98532 155.58967,352.67266 156.87462,350.72555 C 158.14929,348.79403 146.46512,336.54365 148.2955,335.12756 C 150.14064,333.70005 159.69642,347.67267 161.88045,346.85271 C 164.04701,346.0393 161.79491,329.26075 164.10807,329.19098 C 166.43988,329.12064 165.95778,346.04148 168.20665,346.66186 C 170.43754,347.27727 178.47774,332.37939 180.39014,333.68258 C 182.31796,334.99629 171.98211,348.40216 173.43684,350.22591 C 174.87993,352.03507 190.14134,344.70834 190.92251,346.88673 C 191.70997,349.08268 175.46832,353.853 175.57325,356.18351 C 175.67734,358.49539 192.33062,361.53837 191.68217,363.75988 C 191.0285,365.9993 175.0848,360.31196 173.79985,362.25906 C 172.52517,364.19059 184.20935,376.44097 182.37897,377.85706 C 180.53383,379.28457 170.97805,365.31195 168.79402,366.13191 C 166.62746,366.94531 168.87956,383.72387 166.5664,383.79364 C 164.23459,383.86398 164.71669,366.94314 162.46782,366.32276 C 160.23693,365.70735 152.19673,380.60523 150.28433,379.30203 C 148.35651,377.98833 158.69236,364.58246 157.23763,362.75871 C 155.79454,360.94955 140.53313,368.27628 139.75196,366.09789 C 138.9645,363.90194 155.20615,359.13162 155.10122,356.80111 C 154.99713,354.48923 138.34385,351.44625 138.99229,349.22474 z "
         id="path11902"
         inkscape:flatsided="false"
         inkscape:randomized="0"
         inkscape:rounded="0.13"
         sodipodi:arg1="-2.8724252"
         sodipodi:arg2="-2.5434327"
         sodipodi:cx="165.33723"
         sodipodi:cy="356.49231"
         sodipodi:r1="27.328985"
         sodipodi:r2="10.240669"
         sodipodi:sides="10"
         sodipodi:type="star"
         style="opacity:1;color:#000000;fill:#9e9e9e;fill-opacity:1;fill-rule:nonzero;stroke:#a6a6a6;stroke-width:0.28064299;stroke-linecap:round;stroke-linejoin:miter;marker:none;marker-start:none;marker-mid:none;marker-end:none;stroke-miterlimit:0.5;stroke-dasharray:none;stroke-dashoffset:0;stroke-opacity:1;visibility:visible;display:inline;overflow:visible"
         transform="matrix(0.477208,0,0,0.477208,141.7142,126.6512)" />
      <path
         d="M 138.99229,349.22474 C 139.64597,346.98532 155.58967,352.67266 156.87462,350.72555 C 158.14929,348.79403 146.46512,336.54365 148.2955,335.12756 C 150.14064,333.70005 159.69642,347.67267 161.88045,346.85271 C 164.04701,346.0393 161.79491,329.26075 164.10807,329.19098 C 166.43988,329.12064 165.95778,346.04148 168.20665,346.66186 C 170.43754,347.27727 178.47774,332.37939 180.39014,333.68258 C 182.31796,334.99629 171.98211,348.40216 173.43684,350.22591 C 174.87993,352.03507 190.14134,344.70834 190.92251,346.88673 C 191.70997,349.08268 175.46832,353.853 175.57325,356.18351 C 175.67734,358.49539 192.33062,361.53837 191.68217,363.75988 C 191.0285,365.9993 175.0848,360.31196 173.79985,362.25906 C 172.52517,364.19059 184.20935,376.44097 182.37897,377.85706 C 180.53383,379.28457 170.97805,365.31195 168.79402,366.13191 C 166.62746,366.94531 168.87956,383.72387 166.5664,383.79364 C 164.23459,383.86398 164.71669,366.94314 162.46782,366.32276 C 160.23693,365.70735 152.19673,380.60523 150.28433,379.30203 C 148.35651,377.98833 158.69236,364.58246 157.23763,362.75871 C 155.79454,360.94955 140.53313,368.27628 139.75196,366.09789 C 138.9645,363.90194 155.20615,359.13162 155.10122,356.80111 C 154.99713,354.48923 138.34385,351.44625 138.99229,349.22474 z "
         id="path11908"
         inkscape:flatsided="false"
         inkscape:randomized="0"
         inkscape:rounded="0.13"
         sodipodi:arg1="-2.8724252"
         sodipodi:arg2="-2.5434327"
         sodipodi:cx="165.33723"
         sodipodi:cy="356.49231"
         sodipodi:r1="27.328985"
         sodipodi:r2="10.240669"
         sodipodi:sides="10"
         sodipodi:type="star"
         style="opacity:1;color:#000000;fill:#9e9e9e;fill-opacity:1;fill-rule:nonzero;stroke:#a6a6a6;stroke-width:0.28064299;stroke-linecap:round;stroke-linejoin:miter;marker:none;marker-start:none;marker-mid:none;marker-end:none;stroke-miterlimit:0.5;stroke-dasharray:none;stroke-dashoffset:0;stroke-opacity:1;visibility:visible;display:inline;overflow:visible"
         transform="matrix(0.477208,0,0,0.477208,150.9579,153.7966)" />
      <path
         d="M 138.99229,349.22474 C 139.64597,346.98532 155.58967,352.67266 156.87462,350.72555 C 158.14929,348.79403 146.46512,336.54365 148.2955,335.12756 C 150.14064,333.70005 159.69642,347.67267 161.88045,346.85271 C 164.04701,346.0393 161.79491,329.26075 164.10807,329.19098 C 166.43988,329.12064 165.95778,346.04148 168.20665,346.66186 C 170.43754,347.27727 178.47774,332.37939 180.39014,333.68258 C 182.31796,334.99629 171.98211,348.40216 173.43684,350.22591 C 174.87993,352.03507 190.14134,344.70834 190.92251,346.88673 C 191.70997,349.08268 175.46832,353.853 175.57325,356.18351 C 175.67734,358.49539 192.33062,361.53837 191.68217,363.75988 C 191.0285,365.9993 175.0848,360.31196 173.79985,362.25906 C 172.52517,364.19059 184.20935,376.44097 182.37897,377.85706 C 180.53383,379.28457 170.97805,365.31195 168.79402,366.13191 C 166.62746,366.94531 168.87956,383.72387 166.5664,383.79364 C 164.23459,383.86398 164.71669,366.94314 162.46782,366.32276 C 160.23693,365.70735 152.19673,380.60523 150.28433,379.30203 C 148.35651,377.98833 158.69236,364.58246 157.23763,362.75871 C 155.79454,360.94955 140.53313,368.27628 139.75196,366.09789 C 138.9645,363.90194 155.20615,359.13162 155.10122,356.80111 C 154.99713,354.48923 138.34385,351.44625 138.99229,349.22474 z "
         id="path11910"
         inkscape:flatsided="false"
         inkscape:randomized="0"
         inkscape:rounded="0.13"
         sodipodi:arg1="-2.8724252"
         sodipodi:arg2="-2.5434327"
         sodipodi:cx="165.33723"
         sodipodi:cy="356.49231"
         sodipodi:r1="27.328985"
         sodipodi:r2="10.240669"
         sodipodi:sides="10"
         sodipodi:type="star"
         style="opacity:1;color:#000000;fill:#9e9e9e;fill-opacity:1;fill-rule:nonzero;stroke:#a6a6a6;stroke-width:0.28064299;stroke-linecap:round;stroke-linejoin:miter;marker:none;marker-start:none;marker-mid:none;marker-end:none;stroke-miterlimit:0.5;stroke-dasharray:none;stroke-dashoffset:0;stroke-opacity:1;visibility:visible;display:inline;overflow:visible"
         transform="matrix(0.477208,0,0,0.477208,118.9723,153.7965)" />
    </g>
    <g
       id="g13593"
       transform="translate(8.485694,46.32903)">
      <path
         d="M 382.43022,306.73557 C 390.97391,304.68171 396.43919,301.5436 396.43919,298.03759 C 396.43919,297.62299 396.18187,297.253 396.03294,296.85009 C 396.94423,297.0767 397.84654,297.31884 398.84544,297.31884 C 404.41127,297.31884 408.93919,293.53702 408.93919,288.88134 C 408.93919,284.22565 404.41126,280.44384 398.84544,280.44384 C 398.16336,280.44383 397.58338,280.67944 396.93919,280.78759 C 397.50248,278.92601 397.87669,277.02652 397.87669,275.00634 C 397.87669,262.68247 386.72124,252.66259 372.93919,252.66259 L 372.93919,252.66259 C 363.17393,252.66259 354.792,257.72676 350.68919,265.03759 C 349.05054,264.12275 347.24313,263.56884 345.31419,263.56884 C 339.48101,263.56883 334.62697,268.26137 333.12669,274.63134 C 330.56591,273.61916 327.58841,273.00634 324.40794,273.00634 C 314.86651,273.00633 307.12669,278.2268 307.12669,284.66259 C 307.12668,290.47199 313.47437,295.24786 321.72044,296.13134 C 321.35086,296.75839 321.06419,297.37935 321.06419,298.03759 C 321.06418,300.89872 324.70387,303.51486 330.68605,305.49666 M 382.3116,306.76397 C 382.35121,306.75452 372.1582,307.74167 372.19767,307.73218 M 330.68605,305.49666 C 330.72832,305.51067 338.24078,307.19914 339.25049,307.14133"
         id="path11921"
         sodipodi:nodetypes="cscssscscccscsscsccccc"
         style="color:#000000;fill:none;fill-opacity:1;fill-rule:nonzero;stroke:#6798e9;stroke-width:6.15399885;stroke-linecap:round;stroke-linejoin:round;marker:none;marker-start:none;marker-mid:none;marker-end:none;stroke-miterlimit:0.5;stroke-dashoffset:0;stroke-opacity:1;visibility:visible;display:inline;overflow:visible" />
      <path
         d="M 336.73792 363.87854 A 10.317875 10.317875 0 1 1  316.10217,363.87854 A 10.317875 10.317875 0 1 1  336.73792 363.87854 z"
         id="path11929"
         sodipodi:cx="326.42004"
         sodipodi:cy="363.87854"
         sodipodi:rx="10.317875"
         sodipodi:ry="10.317875"
         sodipodi:type="arc"
         style="opacity:1;color:#000000;fill:#9e9e9e;fill-opacity:1;fill-rule:nonzero;stroke:#a6a6a6;stroke-width:0.17298685;stroke-linecap:round;stroke-linejoin:miter;marker:none;marker-start:none;marker-mid:none;marker-end:none;stroke-miterlimit:0.5;stroke-dasharray:none;stroke-dashoffset:0;stroke-opacity:1;visibility:visible;display:inline;overflow:visible"
         transform="matrix(0.774193,0,0,0.774193,103.2547,23.03524)" />
      <path
         d="M 336.73792 363.87854 A 10.317875 10.317875 0 1 1  316.10217,363.87854 A 10.317875 10.317875 0 1 1  336.73792 363.87854 z"
         id="path11933"
         sodipodi:cx="326.42004"
         sodipodi:cy="363.87854"
         sodipodi:rx="10.317875"
         sodipodi:ry="10.317875"
         sodipodi:type="arc"
         style="opacity:1;color:#000000;fill:#9e9e9e;fill-opacity:1;fill-rule:nonzero;stroke:#a6a6a6;stroke-width:0.17298685;stroke-linecap:round;stroke-linejoin:miter;marker:none;marker-start:none;marker-mid:none;marker-end:none;stroke-miterlimit:0.5;stroke-dasharray:none;stroke-dashoffset:0;stroke-opacity:1;visibility:visible;display:inline;overflow:visible"
         transform="matrix(0.774193,0,0,0.774193,88.24687,43.70888)" />
    </g>
    <g
       id="g13598"
       transform="translate(9.272635,37.42024)">
      <g
         id="g11947"
         transform="matrix(0.646039,0,0,0.646039,404.0021,233.88)">
        <path
           d="M 310.66382,132.06057 C 308.83679,134.10487 288.45343,113.67749 285.77048,114.68246 C 283.08753,115.68743 279.03265,148.32438 276.19521,148.69411 C 273.35777,149.06384 268.47975,115.6053 265.71437,114.80628 C 262.94898,114.00725 246.93507,134.1478 244.53473,132.6352 C 242.13439,131.12261 250.23445,106.53712 248.89959,103.96463 C 247.56472,101.39214 217.03654,100.18431 216.40777,97.31453 C 215.77901,94.44475 244.07632,86.915154 244.31025,84.072766 C 244.54419,81.230379 225.31197,65.170616 226.41327,62.678968 C 227.51458,60.187321 253.26783,70.856367 255.00756,68.670558 C 256.74728,66.484749 251.61574,38.987069 254.25587,38.16346 C 256.896,37.339852 272.75893,56.648787 275.5774,56.556432 C 278.39587,56.464078 286.88052,32.268747 289.75998,32.834115 C 292.63945,33.399483 291.20327,58.501746 293.43224,60.177765 C 295.66121,61.853784 317.70385,53.894885 319.33899,56.17282 C 320.97413,58.450756 306.69976,80.617845 307.55944,83.24573 C 308.41912,85.873615 334.57127,88.38123 334.21401,91.098204 C 333.85675,93.815177 301.51488,94.973798 300.16717,97.605407 C 298.81947,100.23702 312.49085,130.01627 310.66382,132.06057 z "
           id="path11949"
           inkscape:flatsided="false"
           inkscape:randomized="-0.092"
           inkscape:rounded="0.1"
           sodipodi:arg1="0.79570711"
           sodipodi:arg2="1.144773"
           sodipodi:cx="275.15002"
           sodipodi:cy="88.090233"
           sodipodi:r1="57.019234"
           sodipodi:r2="32.818508"
           sodipodi:sides="9"
           sodipodi:type="star"
           style="opacity:1;color:#000000;fill:#f5ff12;fill-opacity:1;fill-rule:nonzero;stroke:none;stroke-width:0.2;stroke-linecap:butt;stroke-linejoin:miter;marker:none;marker-start:none;marker-mid:none;marker-end:none;stroke-miterlimit:0.5;stroke-dasharray:none;stroke-dashoffset:0;stroke-opacity:1;visibility:visible;display:inline;overflow:visible"
           transform="translate(-162.3409,-10.78489)" />
        <path
           d="M 194.51692 77.283737 A 39.900909 37.407101 0 1 1  114.7151,77.283737 A 39.900909 37.407101 0 1 1  194.51692 77.283737 z"
           id="path11951"
           sodipodi:cx="154.61601"
           sodipodi:cy="77.283737"
           sodipodi:rx="39.900909"
           sodipodi:ry="37.407101"
           sodipodi:type="arc"
           style="opacity:1;color:#000000;fill:#ffffff;fill-opacity:1;fill-rule:nonzero;stroke:#f5ff12;stroke-width:10.27388287;stroke-linecap:butt;stroke-linejoin:miter;marker:none;marker-start:none;marker-mid:none;marker-end:none;stroke-miterlimit:0.5;stroke-dasharray:none;stroke-dashoffset:0;stroke-opacity:1;visibility:visible;display:inline;overflow:visible"
           transform="matrix(0.979973,0,0,0.87717,-39.12591,6.604884)" />
      </g>
      <path
         d="M 110.53125,144.96875 C 100.76599,144.96875 92.38406,150.03292 88.28125,157.34375 C 86.642607,156.42892 84.83519,155.875 82.90625,155.875 C 77.073071,155.875 72.21903,160.56753 70.71875,166.9375 C 68.157973,165.92533 65.18047,165.3125 62,165.3125 C 52.458571,165.3125 44.71875,170.53296 44.71875,176.96875 C 44.718749,182.77816 51.06643,187.55402 59.3125,188.4375 C 58.942922,189.06456 58.65625,189.68551 58.65625,190.34375 C 58.656248,196.50568 75.53814,201.53125 96.34375,201.53125 C 117.14936,201.53125 134.03126,196.50568 134.03125,190.34375 C 134.03125,189.92916 133.77393,189.55916 133.625,189.15625 C 134.53629,189.38287 135.4386,189.625 136.4375,189.625 C 142.00333,189.62501 146.53125,185.84318 146.53125,181.1875 C 146.53125,176.53182 142.00332,172.75 136.4375,172.75 C 135.75542,172.75 135.17544,172.9856 134.53125,173.09375 C 135.09454,171.23218 135.46875,169.33268 135.46875,167.3125 C 135.46875,154.98864 124.3133,144.96875 110.53125,144.96875 z "
         id="path11953"
         inkscape:original="M 110.53125 144.96875 C 100.76599 144.96875 92.384060 150.03292 88.281250 157.34375 C 86.642607 156.42892 84.835190 155.87500 82.906250 155.87500 C 77.073071 155.87500 72.219030 160.56753 70.718750 166.93750 C 68.157973 165.92533 65.180470 165.31250 62.000000 165.31250 C 52.458571 165.31250 44.718750 170.53296 44.718750 176.96875 C 44.718749 182.77816 51.066430 187.55402 59.312500 188.43750 C 58.942922 189.06456 58.656250 189.68551 58.656250 190.34375 C 58.656248 196.50568 75.538140 201.53125 96.343750 201.53125 C 117.14936 201.53125 134.03126 196.50568 134.03125 190.34375 C 134.03125 189.92916 133.77393 189.55916 133.62500 189.15625 C 134.53629 189.38287 135.43860 189.62500 136.43750 189.62500 C 142.00333 189.62501 146.53125 185.84318 146.53125 181.18750 C 146.53125 176.53182 142.00332 172.75000 136.43750 172.75000 C 135.75542 172.75000 135.17544 172.98560 134.53125 173.09375 C 135.09454 171.23218 135.46875 169.33268 135.46875 167.31250 C 135.46875 154.98864 124.31330 144.96875 110.53125 144.96875 z "
         inkscape:radius="0"
         sodipodi:type="inkscape:offset"
         style="opacity:1;color:#000000;fill:#ffffff;fill-opacity:1;fill-rule:nonzero;stroke:#6798e9;stroke-width:7.30059433;stroke-linecap:round;stroke-linejoin:round;marker:none;marker-start:none;marker-mid:none;marker-end:none;stroke-miterlimit:0.5;stroke-dasharray:none;stroke-dashoffset:0;stroke-opacity:1;visibility:visible;display:inline;overflow:visible"
         transform="matrix(0.826013,0,0,0.860224,409.0014,151.6883)" />
      <path
         d="M 526.73083,289.56741 C 522.16108,289.56741 518.24765,291.89521 516.32769,295.23888 C 515.56087,294.82048 514.70689,294.56431 513.80422,294.56431 C 511.07453,294.56431 508.80375,296.71031 508.10167,299.62367 C 506.90333,299.16074 505.52029,298.87413 504.03195,298.87413 C 499.56695,298.87413 495.942,301.26486 495.942,304.20832 C 495.942,306.86532 498.91139,309.05101 502.77023,309.45508 C 502.59728,309.74187 502.46097,310.02848 502.46097,310.32953 C 502.46097,313.14775 510.36434,315.43887 520.10054,315.43887 C 529.83672,315.43887 537.7401,313.14775 537.7401,310.32953 C 537.7401,310.13992 537.61187,309.96415 537.54218,309.77988 C 537.96863,309.88354 538.39832,309.99225 538.86577,309.99225 C 541.47035,309.99225 543.57871,308.26145 543.57871,306.13214 C 543.57871,304.00282 541.47034,302.28452 538.86577,302.28452 C 538.54657,302.28452 538.26422,302.38496 537.96276,302.43442 C 538.22635,301.58302 538.40808,300.71001 538.40808,299.78607 C 538.40808,294.14962 533.18027,289.56741 526.73083,289.56741 z "
         id="path11963"
         style="opacity:1;color:#000000;fill:#386195;fill-opacity:1;fill-rule:nonzero;stroke:#386195;stroke-width:6.15399694;stroke-linecap:round;stroke-linejoin:round;marker:none;marker-start:none;marker-mid:none;marker-end:none;stroke-miterlimit:0.5;stroke-dasharray:none;stroke-dashoffset:0;stroke-opacity:1;visibility:visible;display:inline;overflow:visible" />
      <path
         d="M 472.5668,341.30058 C 464.31633,348.57057 474.00364,354.77 477.68713,344.78676 L 480.51966,335.52659 L 472.5668,341.30058 z "
         id="path11965"
         sodipodi:nodetypes="cccc"
         style="opacity:1;color:#000000;fill:#6798e9;fill-opacity:1;fill-rule:nonzero;stroke:#6798e9;stroke-width:4;stroke-linecap:butt;stroke-linejoin:miter;marker:none;marker-start:none;marker-mid:none;marker-end:none;stroke-miterlimit:3.20000005;stroke-dasharray:none;stroke-dashoffset:0;stroke-opacity:1;visibility:visible;display:inline;overflow:visible" />
      <path
         d="M 493.43987,342.07366 C 485.1894,349.34365 494.87671,355.54308 498.5602,345.55984 L 501.39273,336.29967 L 493.43987,342.07366 z "
         id="path11967"
         sodipodi:nodetypes="cccc"
         style="opacity:1;color:#000000;fill:#6798e9;fill-opacity:1;fill-rule:nonzero;stroke:#6798e9;stroke-width:4;stroke-linecap:butt;stroke-linejoin:miter;marker:none;marker-start:none;marker-mid:none;marker-end:none;stroke-miterlimit:3.20000005;stroke-dasharray:none;stroke-dashoffset:0;stroke-opacity:1;visibility:visible;display:inline;overflow:visible" />
    </g>
    <g
       id="g13532"
       transform="translate(1.602238,25.19394)">
      <path
         d="M 110.53125,144.96875 C 100.76599,144.96875 92.38406,150.03292 88.28125,157.34375 C 86.642607,156.42892 84.83519,155.875 82.90625,155.875 C 77.073071,155.875 72.21903,160.56753 70.71875,166.9375 C 68.157973,165.92533 65.18047,165.3125 62,165.3125 C 52.458571,165.3125 44.71875,170.53296 44.71875,176.96875 C 44.718749,182.77816 51.06643,187.55402 59.3125,188.4375 C 58.942922,189.06456 58.65625,189.68551 58.65625,190.34375 C 58.656248,196.50568 75.53814,201.53125 96.34375,201.53125 C 117.14936,201.53125 134.03126,196.50568 134.03125,190.34375 C 134.03125,189.92916 133.77393,189.55916 133.625,189.15625 C 134.53629,189.38287 135.4386,189.625 136.4375,189.625 C 142.00333,189.62501 146.53125,185.84318 146.53125,181.1875 C 146.53125,176.53182 142.00332,172.75 136.4375,172.75 C 135.75542,172.75 135.17544,172.9856 134.53125,173.09375 C 135.09454,171.23218 135.46875,169.33268 135.46875,167.3125 C 135.46875,154.98864 124.3133,144.96875 110.53125,144.96875 z "
         id="path9481"
         inkscape:original="M 110.53125 144.96875 C 100.76599 144.96875 92.384060 150.03292 88.281250 157.34375 C 86.642607 156.42892 84.835190 155.87500 82.906250 155.87500 C 77.073071 155.87500 72.219030 160.56753 70.718750 166.93750 C 68.157973 165.92533 65.180470 165.31250 62.000000 165.31250 C 52.458571 165.31250 44.718750 170.53296 44.718750 176.96875 C 44.718749 182.77816 51.066430 187.55402 59.312500 188.43750 C 58.942922 189.06456 58.656250 189.68551 58.656250 190.34375 C 58.656248 196.50568 75.538140 201.53125 96.343750 201.53125 C 117.14936 201.53125 134.03126 196.50568 134.03125 190.34375 C 134.03125 189.92916 133.77393 189.55916 133.62500 189.15625 C 134.53629 189.38287 135.43860 189.62500 136.43750 189.62500 C 142.00333 189.62501 146.53125 185.84318 146.53125 181.18750 C 146.53125 176.53182 142.00332 172.75000 136.43750 172.75000 C 135.75542 172.75000 135.17544 172.98560 134.53125 173.09375 C 135.09454 171.23218 135.46875 169.33268 135.46875 167.31250 C 135.46875 154.98864 124.31330 144.96875 110.53125 144.96875 z "
         inkscape:radius="0"
         sodipodi:type="inkscape:offset"
         style="opacity:1;color:#000000;fill:#ffffff;fill-opacity:1;fill-rule:nonzero;stroke:#6798e9;stroke-width:6.15399885;stroke-linecap:round;stroke-linejoin:round;marker:none;marker-start:none;marker-mid:none;marker-end:none;stroke-miterlimit:0.5;stroke-dasharray:none;stroke-dashoffset:0;stroke-opacity:1;visibility:visible;display:inline;overflow:visible" />
      <path
         d="M 83.861856,219.53167 C 75.611378,226.80166 85.298689,233.00109 88.982186,223.01785 L 91.814709,213.75768 L 83.861856,219.53167 z "
         id="path6522"
         sodipodi:nodetypes="cccc"
         style="opacity:1;color:#000000;fill:#6798e9;fill-opacity:1;fill-rule:nonzero;stroke:#6798e9;stroke-width:4;stroke-linecap:butt;stroke-linejoin:miter;marker:none;marker-start:none;marker-mid:none;marker-end:none;stroke-miterlimit:3.20000005;stroke-dasharray:none;stroke-dashoffset:0;stroke-opacity:1;visibility:visible;display:inline;overflow:visible" />
      <path
         d="M 110.53125,144.96875 C 100.76599,144.96875 92.38406,150.03292 88.28125,157.34375 C 86.642607,156.42892 84.83519,155.875 82.90625,155.875 C 77.073071,155.875 72.21903,160.56753 70.71875,166.9375 C 68.157973,165.92533 65.18047,165.3125 62,165.3125 C 52.458571,165.3125 44.71875,170.53296 44.71875,176.96875 C 44.718749,182.77816 51.06643,187.55402 59.3125,188.4375 C 58.942922,189.06456 58.65625,189.68551 58.65625,190.34375 C 58.656248,196.50568 75.53814,201.53125 96.34375,201.53125 C 117.14936,201.53125 134.03126,196.50568 134.03125,190.34375 C 134.03125,189.92916 133.77393,189.55916 133.625,189.15625 C 134.53629,189.38287 135.4386,189.625 136.4375,189.625 C 142.00333,189.62501 146.53125,185.84318 146.53125,181.1875 C 146.53125,176.53182 142.00332,172.75 136.4375,172.75 C 135.75542,172.75 135.17544,172.9856 134.53125,173.09375 C 135.09454,171.23218 135.46875,169.33268 135.46875,167.3125 C 135.46875,154.98864 124.3133,144.96875 110.53125,144.96875 z "
         id="path11969"
         inkscape:original="M 110.53125 144.96875 C 100.76599 144.96875 92.384060 150.03292 88.281250 157.34375 C 86.642607 156.42892 84.835190 155.87500 82.906250 155.87500 C 77.073071 155.87500 72.219030 160.56753 70.718750 166.93750 C 68.157973 165.92533 65.180470 165.31250 62.000000 165.31250 C 52.458571 165.31250 44.718750 170.53296 44.718750 176.96875 C 44.718749 182.77816 51.066430 187.55402 59.312500 188.43750 C 58.942922 189.06456 58.656250 189.68551 58.656250 190.34375 C 58.656248 196.50568 75.538140 201.53125 96.343750 201.53125 C 117.14936 201.53125 134.03126 196.50568 134.03125 190.34375 C 134.03125 189.92916 133.77393 189.55916 133.62500 189.15625 C 134.53629 189.38287 135.43860 189.62500 136.43750 189.62500 C 142.00333 189.62501 146.53125 185.84318 146.53125 181.18750 C 146.53125 176.53182 142.00332 172.75000 136.43750 172.75000 C 135.75542 172.75000 135.17544 172.98560 134.53125 173.09375 C 135.09454 171.23218 135.46875 169.33268 135.46875 167.31250 C 135.46875 154.98864 124.31330 144.96875 110.53125 144.96875 z "
         inkscape:radius="0"
         sodipodi:type="inkscape:offset"
         style="opacity:1;color:#000000;fill:#ffffff;fill-opacity:1;fill-rule:nonzero;stroke:#6798e9;stroke-width:6.15399885;stroke-linecap:round;stroke-linejoin:round;marker:none;marker-start:none;marker-mid:none;marker-end:none;stroke-miterlimit:0.5;stroke-dasharray:none;stroke-dashoffset:0;stroke-opacity:1;visibility:visible;display:inline;overflow:visible" />
    </g>
    <path
       d="M 652.50252,297.22001 C 642.73726,297.22001 634.3745,302.30967 630.27169,309.6205 C 628.63305,308.70568 626.80814,308.14556 624.8792,308.14556 C 619.04602,308.14556 614.1935,312.8377 612.69322,319.20767 C 610.13244,318.19549 607.17696,317.56884 603.99649,317.56884 C 594.45506,317.56884 586.70878,322.79606 586.70878,329.23185 C 586.70878,335.04126 593.05417,339.8202 601.30024,340.70368 C 600.93066,341.33074 600.63939,341.9574 600.63939,342.61564 C 600.63939,348.77757 617.52839,353.78701 638.334,353.78701 C 659.13961,353.78701 676.02861,348.77757 676.0286,342.61564 C 676.0286,342.20105 675.7546,341.81675 675.60567,341.41384 C 676.51696,341.64046 677.43519,341.87817 678.43409,341.87817 C 683.99992,341.87817 688.50536,338.09387 688.50536,333.43819 C 688.50536,328.78251 683.99991,325.02552 678.43409,325.02552 C 677.75201,325.02552 677.14861,325.24514 676.50442,325.35329 C 677.06771,323.49172 677.45603,321.58293 677.45603,319.56275 C 677.45603,307.23889 666.28457,297.22001 652.50252,297.22001 z "
       id="path13431"
       style="opacity:1;color:#000000;fill:#ffffff;fill-opacity:1;fill-rule:nonzero;stroke:#6798e9;stroke-width:6.15399885;stroke-linecap:round;stroke-linejoin:round;marker:none;marker-start:none;marker-mid:none;marker-end:none;stroke-miterlimit:0.5;stroke-dasharray:none;stroke-dashoffset:0;stroke-opacity:1;visibility:visible;display:inline;overflow:visible" />
    <path
       d="M 639.98262,366.11129 C 641.69108,364.56024 643.66192,362.65314 646.77996,362.84512 C 650.0509,362.84264 651.62034,363.18753 654.81629,364.18265 C 658.01226,365.17775 661.26399,366.83578 663.70418,366.24018 C 666.24664,365.61965 669.05069,363.2877 670.17227,361.8571 C 671.81403,362.35753 669.72453,364.44948 669.23535,365.33054 C 667.70531,367.62545 666.31028,369.18021 664.07665,369.83186 C 661.63709,370.66148 658.74366,370.30919 656.32067,369.8005 C 653.58316,369.15077 650.91629,368.02023 648.19243,367.28924 C 645.17163,366.64461 640.81565,368.17071 639.6407,368.72298 C 638.42021,369.29663 636.02238,371.88921 636.47406,369.80148 C 637.63664,368.7038 638.25096,367.68337 639.98262,366.11129 z "
       id="path13472"
       sodipodi:nodetypes="cczsccccczcz"
       style="fill:#9e9e9e;fill-opacity:1;fill-rule:nonzero;stroke:#9e9e9e;stroke-width:0.9999994px;stroke-linecap:butt;stroke-linejoin:miter;stroke-opacity:1" />
    <path
       d="M 604.596,364.94737 C 606.30445,363.39633 608.27529,361.48922 611.39333,361.68121 C 614.66427,361.67871 616.23372,362.02361 619.42966,363.01872 C 622.62563,364.01384 625.87736,365.67186 628.31755,365.07627 C 630.86001,364.45574 633.66407,362.12379 634.78564,360.69319 C 636.42741,361.19362 634.3379,363.28556 633.84872,364.16663 C 632.31868,366.46154 630.92365,368.0163 628.69003,368.66794 C 626.25046,369.49756 623.35703,369.14526 620.93405,368.63659 C 618.19653,367.98685 615.52966,366.85632 612.8058,366.12533 C 609.785,365.4807 605.42902,367.00679 604.25407,367.55906 C 603.03358,368.13272 600.63575,370.72529 601.08743,368.63756 C 602.25001,367.53989 602.86433,366.51945 604.596,364.94737 z "
       id="path13501"
       sodipodi:nodetypes="cczsccccczcz"
       style="fill:#9e9e9e;fill-opacity:1;fill-rule:nonzero;stroke:#9e9e9e;stroke-width:0.9999994px;stroke-linecap:butt;stroke-linejoin:miter;stroke-opacity:1" />
    <path
       d="M 619.45838,376.58658 C 621.16684,375.03553 623.13767,373.12843 626.25572,373.3204 C 629.52665,373.31792 631.0961,373.66282 634.29204,374.65793 C 637.48801,375.65303 640.73974,377.31107 643.17993,376.71547 C 645.7224,376.09494 648.52645,373.76298 649.64802,372.33238 C 651.28979,372.83282 649.20029,374.92477 648.7111,375.80582 C 647.18106,378.10073 645.78604,379.6555 643.55241,380.30715 C 641.11284,381.13677 638.21941,380.78446 635.79643,380.27579 C 633.05892,379.62606 630.39204,378.49552 627.66818,377.76453 C 624.64738,377.1199 620.2914,378.646 619.11645,379.19827 C 617.89596,379.77192 615.49814,382.36449 615.94981,380.27677 C 617.11239,379.17909 617.72672,378.15866 619.45838,376.58658 z "
       id="path13505"
       sodipodi:nodetypes="cczsccccczcz"
       style="fill:#9e9e9e;fill-opacity:1;fill-rule:nonzero;stroke:#9e9e9e;stroke-width:0.9999994px;stroke-linecap:butt;stroke-linejoin:miter;stroke-opacity:1" />
  </g>
</svg>
